<?xml version="1.0" encoding="UTF-8"?>
<svg version="1.1" xmlns="http://www.w3.org/2000/svg" width="1024" height="1536">
<path d="M0 0 C337.92 0 675.84 0 1024 0 C1024 506.88 1024 1013.76 1024 1536 C686.08 1536 348.16 1536 0 1536 C0 1029.12 0 522.24 0 0 Z " fill="#0D0D0D" transform="translate(0,0)"/>
<path d="M0 0 C2.00146538 -0.00015549 4.00293105 -0.00165266 6.00439453 -0.00440979 C10.17298912 -0.00578422 14.34123567 0.00660247 18.50976562 0.02954102 C23.80800888 0.05792228 29.10567524 0.05517513 34.40396118 0.0424509 C38.52910138 0.03544004 42.65411219 0.0433442 46.77923584 0.05570793 C48.73093161 0.0601701 50.68264153 0.06060601 52.63433838 0.05664253 C77.12672314 0.0301731 97.50392186 4.05191815 116.125 21.24609375 C127.98171974 33.73452397 131.59301774 49.23936033 131.34155273 65.89453125 C131.31212934 68.02290602 131.3210947 70.14884473 131.33398438 72.27734375 C131.29803091 80.21596023 130.9662549 85.78658787 125.6875 92.12109375 C118.82441407 97.91658854 113.26985618 99.17476954 104.21875 98.875 C96.91073464 98.04687209 92.72152872 94.93702637 88.1015625 89.375 C83.9996472 83.0914928 84.52507541 76.59705472 84.484375 69.33203125 C84.32541467 63.15024072 83.31571192 59.63723473 79.875 54.49609375 C79.545 53.50609375 79.215 52.51609375 78.875 51.49609375 C77.03039902 50.346999 77.03039902 50.346999 74.875 49.49609375 C73.67625244 48.96878662 72.47750488 48.44147949 71.24243164 47.89819336 C63.78221731 45.48868491 55.75225217 46.04462332 47.99609375 46.0625 C46.25692034 46.05793185 44.51774874 46.05262441 42.77857971 46.0466156 C39.14666372 46.03771542 35.51496801 46.0400734 31.88305664 46.05004883 C27.24398614 46.06155335 22.60567518 46.0412888 17.96670437 46.01213169 C14.37973763 45.99373339 10.79295189 45.99406904 7.20594978 45.99976921 C5.49603266 45.99992188 3.78610285 45.99392269 2.076231 45.98147774 C-10.14845061 45.69872974 -10.14845061 45.69872974 -21.125 50.49609375 C-26.98848492 56.35957867 -29.43674451 62.16080548 -29.56748962 70.2837677 C-29.56455399 71.11309311 -29.56161835 71.94241852 -29.55859375 72.796875 C-29.5638356 73.67329147 -29.56907745 74.54970795 -29.57447815 75.4526825 C-29.58087343 77.29909206 -29.57959382 79.14554251 -29.57104492 80.99194336 C-29.56255549 83.7903043 -29.59129716 86.58660688 -29.62304688 89.38476562 C-29.94158948 103.87724322 -29.94158948 103.87724322 -23.43334961 116.37817383 C-17.62722235 121.9499221 -11.2010502 123.94900635 -3.28466797 123.89672852 C-2.53399551 123.90370758 -1.78332306 123.91068665 -1.00990295 123.9178772 C1.45445202 123.9377542 3.9183847 123.93735349 6.3828125 123.9375 C8.11287545 123.94928958 9.84292828 123.96265764 11.57296753 123.9775238 C16.12173688 124.01363865 20.67041679 124.03388034 25.21929932 124.04907227 C32.47692189 124.07392332 39.73434643 124.1141134 46.99178696 124.17097282 C49.50687226 124.18709338 52.02176557 124.19106117 54.53689575 124.19398499 C76.03833921 124.29232783 97.59659891 128.14972336 113.9375 143.3671875 C127.4837872 158.25171678 132.1915292 174.74352837 132.17578125 194.546875 C132.18006638 195.76328171 132.1843515 196.97968842 132.18876648 198.23295593 C132.19447782 200.79193503 132.1950338 203.35093035 132.19067383 205.90991211 C132.18751739 209.78723361 132.21100284 213.66378832 132.23632812 217.54101562 C132.23860205 220.0429678 132.23930418 222.544922 132.23828125 225.046875 C132.247491 226.18691483 132.25670074 227.32695465 132.26618958 228.50154114 C132.20381492 239.56313465 130.56505353 250.72950929 125.375 260.62109375 C125.03315674 261.28359131 124.69131348 261.94608887 124.33911133 262.62866211 C115.93265118 278.11228409 101.55082892 288.28274466 84.83203125 293.43359375 C76.05392029 295.74772186 67.43844422 296.64334705 58.38037109 296.65722656 C57.58385132 296.66219147 56.78733154 296.66715637 55.9666748 296.67227173 C53.36058654 296.68674215 50.75455915 296.69367052 48.1484375 296.69921875 C47.24867817 296.70204613 46.34891884 296.7048735 45.42189407 296.70778656 C40.65837568 296.72271908 35.89488711 296.73198551 31.13134766 296.73632812 C26.25323586 296.74179822 21.3754052 296.76581258 16.49738121 296.79430008 C12.70857995 296.81307747 8.91984434 296.81814006 5.13100052 296.819664 C3.33475842 296.82265805 1.53851655 296.83057413 -0.25767899 296.84384918 C-14.02457744 296.9383208 -27.99241057 296.59173426 -40.375 289.80859375 C-41.03556396 289.46119141 -41.69612793 289.11378906 -42.37670898 288.75585938 C-59.15976397 279.70487381 -69.11252528 268.03227043 -75.296875 250.09765625 C-77.44075629 241.9064117 -77.47015039 233.91245334 -77.125 225.49609375 C-77.09599609 223.73458984 -77.09599609 223.73458984 -77.06640625 221.9375 C-76.73707431 213.30501127 -74.89800968 208.08045295 -68.625 202.12109375 C-61.56333361 197.5310106 -54.2514401 197.93261361 -46.125 198.49609375 C-40.86560932 199.6275257 -36.92644573 202.78104451 -33.125 206.49609375 C-29.75854085 211.73369646 -29.74077507 216.23274077 -29.6875 222.24609375 C-29.30252183 234.41359407 -29.30252183 234.41359407 -23.15234375 244.60546875 C-17.7866489 249.47452034 -14.59934869 250.64659336 -7.38989258 250.65722656 C-6.59129822 250.66219147 -5.79270386 250.66715637 -4.96990967 250.67227173 C-2.31977484 250.68691222 0.33030007 250.6936998 2.98046875 250.69921875 C4.82172141 250.70497031 6.66297406 250.71072804 8.50422668 250.7164917 C12.37041503 250.72700819 16.23658256 250.73284606 20.1027832 250.73632812 C25.04802195 250.74180278 29.99298396 250.76580601 34.9381361 250.79430008 C38.74464204 250.81296281 42.55108195 250.81813408 46.35762978 250.819664 C48.18002136 250.82268475 50.00241193 250.83069374 51.82475853 250.84384918 C54.38102325 250.86097966 56.93662046 250.85901208 59.49291992 250.85253906 C60.61462334 250.86636124 60.61462334 250.86636124 61.75898743 250.88046265 C67.54929955 250.83472898 72.21926647 249.66347958 76.765625 245.953125 C77.21421875 245.41042969 77.6628125 244.86773438 78.125 244.30859375 C78.58390625 243.77878906 79.0428125 243.24898437 79.515625 242.703125 C83.583032 236.0994326 84.34203496 230.01785786 84.34375 222.44140625 C84.35136353 221.49981659 84.35897705 220.55822693 84.36682129 219.58810425 C84.37757252 217.60645178 84.38049578 215.62474288 84.37597656 213.64306641 C84.37500484 210.63606828 84.41667172 207.6316303 84.4609375 204.625 C84.82559492 190.70945057 84.82559492 190.70945057 78.875 178.49609375 C72.46519163 172.29112371 64.73941904 171.24900175 56.06054688 171.24072266 C55.32430084 171.2371022 54.58805481 171.23348175 53.82949829 171.22975159 C52.24398529 171.22290511 50.65844896 171.22034315 49.07292175 171.22169876 C46.54735799 171.22267417 44.02220823 171.2095999 41.4967041 171.19271851 C34.32042686 171.14677469 27.14419293 171.12189214 19.96777344 171.11523438 C15.56223067 171.11016449 11.15711966 171.08563873 6.75172424 171.04990768 C5.09032304 171.04023208 3.42886149 171.03770933 1.7674408 171.04307938 C-12.24835995 171.08623098 -25.87741251 169.5460201 -38.4375 162.74609375 C-39.09427734 162.40247803 -39.75105469 162.0588623 -40.42773438 161.70483398 C-55.53002503 153.60193097 -67.57153088 142.32859763 -73.4140625 125.86328125 C-76.21481421 116.37296431 -77.28576487 107.47514465 -77.328125 97.62109375 C-77.33382507 96.57896729 -77.33952515 95.53684082 -77.34539795 94.46313477 C-77.35481653 92.26107792 -77.36136939 90.05900719 -77.36523438 87.85693359 C-77.3748882 84.534571 -77.40592093 81.21284137 -77.4375 77.890625 C-77.55415429 54.77115598 -74.30433792 35.01931476 -58.10546875 17.28515625 C-42.13302437 1.81648099 -21.01399474 -0.13494489 0 0 Z " fill="#F5F5F5" transform="translate(717.125,556.50390625)"/>
<path d="M0 0 C1.15483383 -0.00708481 2.30966766 -0.01416962 3.49949646 -0.02146912 C5.39456184 -0.01775299 5.39456184 -0.01775299 7.32791138 -0.01396179 C8.67522972 -0.01831046 10.02254559 -0.02349413 11.36985779 -0.02944946 C15.02956298 -0.04284553 18.6891649 -0.04341664 22.34888983 -0.04088616 C25.41218903 -0.03981518 28.47546746 -0.04470394 31.53876221 -0.04949158 C38.77790197 -0.06059246 46.01698987 -0.06102329 53.25613403 -0.05497742 C60.69502873 -0.04895934 68.13373323 -0.06119187 75.57259548 -0.08254749 C81.97710042 -0.10024981 88.38154534 -0.10615067 94.7860738 -0.10290974 C98.60277475 -0.10110776 102.41934057 -0.10362184 106.23601913 -0.11762428 C109.83613706 -0.1303363 113.4359633 -0.12813447 117.0360775 -0.11521339 C118.96327371 -0.11177384 120.89047937 -0.12293122 122.81764221 -0.13478088 C143.44417317 -0.01248417 160.66096648 6.55589923 175.83621216 20.56929016 C188.67010348 33.77172228 192.82515942 50.08216068 192.73464966 68.06538391 C192.73895493 69.98775375 192.73895493 69.98775375 192.74334717 71.94895935 C192.74773173 74.64331604 192.74146857 77.33737131 192.72732544 80.0316925 C192.71027015 83.44254636 192.72007571 86.85268969 192.73804283 90.26351738 C192.75165068 93.57252584 192.74204939 96.88135545 192.73464966 100.19038391 C192.74072235 101.39290802 192.74679504 102.59543213 192.75305176 103.83439636 C192.59173929 123.64696845 186.54786157 140.44872259 173.02371216 155.01069641 C165.66074025 161.98965845 156.57213575 166.3248237 147.33621216 170.26069641 C151.76431219 178.51169156 156.40449492 186.62558184 161.14871216 194.69819641 C161.69687088 195.63269623 161.69687088 195.63269623 162.25610352 196.58607483 C168.06301715 206.48128222 173.97535917 216.30886911 179.94696045 226.10536194 C185.09431012 234.55056313 190.20822904 243.01447576 195.26171875 251.51625061 C195.97221756 252.71107679 196.68372859 253.90530169 197.39630127 255.09889221 C198.37922755 256.74611874 199.3578253 258.39592586 200.33621216 260.04585266 C200.89308716 260.98308167 201.44996216 261.92031067 202.02371216 262.88594055 C205.08066673 268.417004 204.91727253 274.0899989 204.33621216 280.26069641 C201.77748555 285.67338732 197.53159874 289.53639346 192.26589966 292.37788391 C187.97772114 293.67005504 183.85385523 293.62920676 179.39871216 293.63569641 C178.51763794 293.6601886 177.63656372 293.68468079 176.72879028 293.70991516 C171.07484048 293.73532617 167.69298608 293.18984957 163.33621216 289.26069641 C158.04310046 283.32286518 154.29745699 276.27265119 150.39871216 269.38569641 C149.40636314 267.64908564 148.41400584 265.91247954 147.42114258 264.17616272 C146.39790596 262.38526102 145.37691599 260.59309281 144.35623169 258.80073547 C141.2061592 253.27399437 138.01911613 247.76856972 134.83621216 242.26069641 C133.58732589 240.0967426 132.33862851 237.93267977 131.09011841 235.76850891 C130.16223511 234.16024231 130.16223511 234.16024231 129.21560669 232.51948547 C127.3264105 229.24370076 125.43857107 225.96713749 123.55105591 222.69038391 C116.70148424 210.80277783 109.82729257 198.93028473 102.90237427 187.08638 C102.36104858 186.16034973 101.8197229 185.23431946 101.26199341 184.28022766 C100.47767944 182.98653259 100.47767944 182.98653259 99.67752075 181.66670227 C98.33621216 179.26069641 98.33621216 179.26069641 97.59255981 177.05976868 C96.90517258 174.78092701 96.90517258 174.78092701 94.33621216 172.26069641 C89.25965445 171.33077814 84.22227385 171.4579305 79.08621216 171.57319641 C62.00222044 171.83073415 62.00222044 171.83073415 55.33621216 167.26069641 C50.83321656 161.60308656 50.11348367 156.99226764 50.02371216 149.94819641 C49.9802063 148.82767883 49.9802063 148.82767883 49.93582153 147.68452454 C49.87568451 142.41559599 50.6438435 139.29032079 54.33621216 135.26069641 C61.46499332 130.62986807 67.7660253 130.71708643 76.10964966 130.79194641 C78.12533621 130.78117269 80.14102292 130.77037646 82.15670204 130.75829315 C86.38399376 130.7393421 90.61129018 130.75569588 94.83859253 130.76576233 C98.99791792 130.77402232 103.15660927 130.76580313 107.31584549 130.7366333 C109.24658286 130.72962983 111.17736037 130.74637019 113.10803223 130.76374817 C121.95714391 130.71332205 128.50657799 129.05115171 136.14871216 124.63569641 C141.35448624 118.98371312 144.39632842 111.59200987 144.52908325 103.92622375 C144.54514618 103.07788971 144.56120911 102.22955566 144.57775879 101.35551453 C144.62263239 97.47349687 144.66329395 93.59164397 144.68630981 89.70942688 C144.70282529 87.67089893 144.73005666 85.63242783 144.76834106 83.5941925 C144.82353325 80.63637117 144.84505042 77.67990311 144.85964966 74.72163391 C144.88231903 73.82334869 144.9049884 72.92506348 144.92834473 71.9995575 C144.90363945 64.48190654 142.63288415 58.25375624 137.81408691 52.41703796 C130.93164014 45.83021442 121.71036562 44.81276698 112.572052 44.82832336 C111.6537561 44.81813171 110.73546021 44.80794006 109.78933716 44.79743958 C106.79187735 44.76754743 103.79473832 44.75808027 100.79714966 44.74897766 C98.7039282 44.73211332 96.61071676 44.71396074 94.51751709 44.69458008 C89.03662243 44.64726465 83.55576841 44.61733612 78.07473755 44.59114075 C72.4704079 44.56124177 66.86621801 44.51474366 61.26199341 44.46968079 C50.28680638 44.38385781 39.31159042 44.31641943 28.33621216 44.26069641 C28.33897754 45.44806617 28.34174292 46.63543592 28.34459209 47.85878658 C28.40960351 76.06163773 28.45905265 104.26448514 28.48940815 132.46739515 C28.49316015 135.94073203 28.49704312 139.41406875 28.50100708 142.8874054 C28.50179401 143.57886723 28.50258094 144.27032906 28.50339172 144.98274428 C28.51643603 156.17024611 28.54008448 167.35770156 28.56767055 178.5451759 C28.59575193 190.02953503 28.61216972 201.51386157 28.61847764 212.99825436 C28.62238782 219.4467731 28.63157494 225.89518675 28.65340233 232.3436718 C28.67378636 238.41501776 28.680042 244.48621546 28.6755352 250.55759239 C28.67635954 252.78398698 28.68231364 255.0103866 28.69382858 257.23675156 C28.70880246 260.2816115 28.70514769 263.32591516 28.69697571 266.37078857 C28.70571423 267.24727301 28.71445276 268.12375744 28.72345608 269.026802 C28.67274601 276.03984606 27.25369298 282.11054935 23.58621216 288.13569641 C17.89802507 293.5078731 11.71657196 293.73515556 4.27371216 293.63569641 C2.96563599 293.65309875 2.96563599 293.65309875 1.63113403 293.67085266 C-4.46703056 293.64315471 -8.91827174 292.84505014 -13.52706909 288.50679016 C-14.00531128 287.90995422 -14.48355347 287.31311829 -14.97628784 286.69819641 C-15.46742065 286.09878235 -15.95855347 285.49936829 -16.46456909 284.88179016 C-18.54318959 282.07192858 -18.79037082 280.30907808 -18.79800892 276.8671093 C-18.80469568 275.47343661 -18.80469568 275.47343661 -18.81151754 274.05160892 C-18.81133317 273.02400837 -18.81114881 271.99640781 -18.81095886 270.93766785 C-18.81463555 269.85129504 -18.81831224 268.76492224 -18.82210034 267.64562905 C-18.83317292 263.98069239 -18.83698708 260.31578404 -18.84078979 256.65083313 C-18.84705178 254.03300892 -18.85369834 251.41518561 -18.86070251 248.79736328 C-18.88047895 240.92267659 -18.89053556 233.0479886 -18.8994303 225.17328328 C-18.90381211 221.46547276 -18.90917927 217.75766367 -18.91441917 214.04985428 C-18.9314342 201.72440576 -18.94592777 189.39895814 -18.95316792 177.07349968 C-18.95507784 173.87385431 -18.95699816 170.67420894 -18.95895386 167.4745636 C-18.9594376 166.67929894 -18.95992134 165.88403428 -18.96041974 165.0646707 C-18.96871772 152.1856039 -18.99404946 139.30663005 -19.02653453 126.42760383 C-19.05961095 113.20635492 -19.07761728 99.98515323 -19.08081216 86.76386273 C-19.08297694 79.34008914 -19.09172066 71.91645101 -19.11727333 64.49271774 C-19.14125985 57.50779241 -19.1448023 50.52311451 -19.13451195 43.53815651 C-19.13401555 40.97431567 -19.14036647 38.41046298 -19.15406799 35.84665871 C-19.17172926 32.3460213 -19.16470801 28.8462645 -19.15153503 25.34562683 C-19.16250428 24.33141061 -19.17347353 23.31719438 -19.18477517 22.27224433 C-19.12876788 16.10580634 -18.21788716 11.3958821 -14.66378784 6.26069641 C-10.05886887 1.88602339 -6.34029363 0.01297476 0 0 Z " fill="#F6F6F6" transform="translate(388.6637878417969,557.7393035888672)"/>
<path d="M0 0 C1.85273026 -0.01062721 1.85273026 -0.01062721 3.7428894 -0.02146912 C5.10887183 -0.01917537 6.4748539 -0.01666568 7.84083557 -0.01396179 C9.28157312 -0.01830971 10.72230836 -0.02349313 12.16304016 -0.02944946 C16.07419736 -0.04284203 19.98525793 -0.04341786 23.89643359 -0.04088616 C27.16189225 -0.03981664 30.42733133 -0.04469933 33.6927858 -0.04949158 C41.39661024 -0.06058763 49.10038591 -0.06102361 56.80421448 -0.05497742 C64.75110839 -0.04893635 72.69782531 -0.06125172 80.64468902 -0.08254749 C87.46858201 -0.10016141 94.29241866 -0.10616519 101.11633354 -0.10290974 C105.19152104 -0.10109643 109.26658228 -0.10373783 113.34174919 -0.11762428 C117.17411355 -0.13019468 121.00620192 -0.12826616 124.83856201 -0.11521339 C126.24422867 -0.11284634 127.64991471 -0.11558697 129.05555916 -0.12383652 C130.97597889 -0.13429364 132.89647716 -0.12440641 134.81689453 -0.11352539 C135.89111884 -0.11369313 136.96534315 -0.11386087 138.07211971 -0.1140337 C142.67512735 0.48079147 145.20482297 2.38703639 148.22193909 5.82319641 C151.66339752 10.61665638 151.22603277 14.68933334 151.28443909 20.44819641 C151.31344299 21.38212219 151.3424469 22.31604797 151.37232971 23.27827454 C151.42936889 29.51309543 150.6589731 33.18512674 146.97193909 38.26069641 C142.55917897 41.5702665 138.58662539 42.38692404 133.16304016 42.38095093 C132.19832794 42.38232559 131.23361572 42.38370026 130.2396698 42.38511658 C128.66226517 42.37972366 128.66226517 42.37972366 127.05299377 42.3742218 C125.94050262 42.37436783 124.82801147 42.37451385 123.68180847 42.37466431 C120.00245722 42.37396731 116.32315651 42.3661848 112.64381409 42.35835266 C110.09362312 42.35648773 107.5434318 42.35506418 104.99324036 42.35406494 C98.96556579 42.35063613 92.93791295 42.34275358 86.91024709 42.33271545 C80.04692589 42.32153403 73.18360382 42.31603875 66.32027578 42.31102002 C52.2041535 42.30057043 38.08804729 42.28298363 23.97193909 42.26069641 C23.97470447 43.47660021 23.97746984 44.69250401 23.98031902 45.94525337 C24.04529032 74.8073181 24.09475951 103.66938156 24.12513508 132.53150249 C24.1288872 136.08381205 24.13277017 139.63612146 24.13673401 143.18843079 C24.13752094 143.89563262 24.13830787 144.60283446 24.13911865 145.33146666 C24.15217313 156.78288887 24.1758272 168.23426592 24.20339748 179.68566133 C24.23145052 191.43555643 24.24811513 203.18542786 24.25420457 214.93535507 C24.25811963 221.53524259 24.26733768 228.13502764 24.28912926 234.73488235 C24.30946793 240.94492921 24.31577813 247.15483122 24.31126213 253.36490822 C24.3120885 255.64577712 24.3180696 257.92665079 24.32955551 260.20749092 C24.34445835 263.31908356 24.34090046 266.43012773 24.33270264 269.54173279 C24.34144116 270.44641049 24.35017969 271.35108818 24.35918301 272.28318036 C24.31248217 278.83123361 22.96646218 282.95124862 18.59693909 288.01069641 C13.43583604 292.43449902 8.62468759 292.62497761 2.09693909 292.63569641 C1.3196344 292.6601886 0.54232971 292.68468079 -0.25852966 292.70991516 C-6.74316547 292.7426108 -10.9028045 291.12668267 -15.77024841 286.66304016 C-18.89868278 282.61765089 -20.15156812 279.85333868 -20.15948868 274.78532696 C-20.16332982 273.86343757 -20.16717097 272.94154819 -20.17112851 271.99172276 C-20.17026203 270.97734366 -20.16939555 269.96296455 -20.16850281 268.91784668 C-20.17147393 267.84145898 -20.17444505 266.76507127 -20.17750621 265.65606576 C-20.18621285 262.03102277 -20.18770311 258.40601272 -20.18919373 254.78096008 C-20.19382048 252.18929981 -20.19884495 249.59764023 -20.20423889 247.00598145 C-20.21782447 239.9522639 -20.22384725 232.89855205 -20.22824955 225.8448236 C-20.23101154 221.44109651 -20.23524881 217.03737162 -20.23975372 212.63364601 C-20.25194658 200.44283149 -20.26224593 188.25201872 -20.26562881 176.06119823 C-20.26584838 175.2808636 -20.26606795 174.50052896 -20.26629417 173.69654782 C-20.26651244 172.91433861 -20.26673072 172.1321294 -20.26695561 171.32621688 C-20.26739908 169.7411443 -20.26784564 168.15607172 -20.26829529 166.57099915 C-20.26851672 165.78474721 -20.26873815 164.99849528 -20.26896629 164.18841753 C-20.27291466 151.44711158 -20.29036979 138.70586281 -20.31365481 125.96457895 C-20.33736405 112.88568919 -20.34983047 99.80682814 -20.35099673 86.72791654 C-20.35191372 79.38361422 -20.35767209 72.03938641 -20.37581635 64.6951046 C-20.39281989 57.78817458 -20.39447315 50.88138824 -20.38567734 43.97444344 C-20.3849047 41.43717953 -20.38927931 38.89990815 -20.39913559 36.36266327 C-20.41178822 32.90310434 -20.4060143 29.44405205 -20.39555359 25.98449707 C-20.40360999 24.97681013 -20.4116664 23.96912319 -20.41996694 22.93090028 C-20.37491114 16.5743092 -19.49554467 12.26060705 -15.34446716 7.21382141 C-14.7656781 6.65179016 -14.18688904 6.08975891 -13.59056091 5.51069641 C-13.01434998 4.93835266 -12.43813904 4.36600891 -11.84446716 3.77632141 C-7.98928187 0.55952164 -4.9954001 0.00954969 0 0 Z " fill="#F7F7F7" transform="translate(184.02806091308594,558.7393035888672)"/>
<path d="M0 0 C7.87414823 5.62009817 13.32821385 12.23849052 15.796875 21.7109375 C17.16161888 31.33377444 14.49725254 40.08666527 9.109375 48.0859375 C3.26860053 55.26552929 -5.06321164 57.98602597 -13.94921875 59.03515625 C-23.11311698 59.57140517 -30.35288845 56.80086669 -37.37109375 50.8828125 C-44.59293139 43.30681224 -46.84969328 34.91046088 -46.74414062 24.61547852 C-46.33304656 15.78010233 -42.64710405 9.19474373 -36.234375 3.24609375 C-25.27065698 -5.03994698 -12.16200748 -7.11606821 0 0 Z " fill="#F7F7F7" transform="translate(291.203125,658.2890625)"/>
<path d="M0 0 C0.70318359 -0.03287109 1.40636719 -0.06574219 2.13085938 -0.09960938 C6.07773673 -0.14029883 7.86748812 0.28634 11.015625 2.7265625 C13.48610867 5.99853896 13.82447203 8.39102455 14.0625 12.4375 C11.7525 12.4375 9.4425 12.4375 7.0625 12.4375 C7.0625 12.7675 7.0625 13.0975 7.0625 13.4375 C9.3725 13.4375 11.6825 13.4375 14.0625 13.4375 C16.09415952 9.10329301 16.58310632 5.15153788 17.0625 0.4375 C17.3925 0.4375 17.7225 0.4375 18.0625 0.4375 C18.0625 11.3275 18.0625 22.2175 18.0625 33.4375 C17.0725 32.7775 16.0825 32.1175 15.0625 31.4375 C14.375 27.8125 14.375 27.8125 14.0625 24.4375 C11.7525 24.4375 9.4425 24.4375 7.0625 24.4375 C7.0625 24.7675 7.0625 25.0975 7.0625 25.4375 C9.3725 25.4375 11.6825 25.4375 14.0625 25.4375 C13.69757012 32.7360976 13.69757012 32.7360976 11.04296875 35.66796875 C7.09132614 38.01409471 4.07424203 38.06623455 -0.4375 38 C-1.55705078 38.03577148 -1.55705078 38.03577148 -2.69921875 38.07226562 C-6.89653051 38.06112232 -8.50219836 37.78173195 -11.90625 35.08984375 C-15.73362084 30.09218067 -15.15474734 25.15558303 -15.1875 19.125 C-15.208125 18.18720703 -15.22875 17.24941406 -15.25 16.28320312 C-15.28002543 10.95744194 -15.1187753 6.94430668 -11.9375 2.4375 C-8.49940713 -0.30185806 -4.22126369 0.03463206 0 0 Z M5.0625 26.4375 C6.0625 28.4375 6.0625 28.4375 6.0625 28.4375 Z " fill="#0E0E0D" transform="translate(576.9375,925.5625)"/>
<path d="M0 0 C0.70318359 -0.01611328 1.40636719 -0.03222656 2.13085938 -0.04882812 C6.6226644 -0.05303788 9.55578052 0.45158521 13.0625 3.3125 C14.97355679 6.38457292 15.31880711 8.7507906 15.328125 12.33984375 C15.33199219 13.77553711 15.33199219 13.77553711 15.3359375 15.24023438 C15.32820313 16.23345703 15.32046875 17.22667969 15.3125 18.25 C15.32023437 19.23935547 15.32796875 20.22871094 15.3359375 21.24804688 C15.33335937 22.20646484 15.33078125 23.16488281 15.328125 24.15234375 C15.32586914 25.02238037 15.32361328 25.89241699 15.32128906 26.78881836 C14.94510756 30.4572978 13.93575461 33.31729462 11.49609375 36.09765625 C7.76832397 37.95854935 4.23442582 37.78630818 0.125 37.75 C-0.67357422 37.76998047 -1.47214844 37.78996094 -2.29492188 37.81054688 C-6.31341655 37.80721755 -8.44363703 37.61498304 -11.94140625 35.47265625 C-16.19680681 30.86749674 -15.15844956 24.84926451 -15.1875 18.9375 C-15.208125 17.8959375 -15.22875 16.854375 -15.25 15.78125 C-15.30006702 5.99314768 -15.30006702 5.99314768 -11.9375 2.3125 C-8.41179308 -0.38267088 -4.2568219 -0.01940211 0 0 Z " fill="#F3F3F3" transform="translate(470.9375,925.6875)"/>
<path d="M0 0 C0.70318359 -0.03287109 1.40636719 -0.06574219 2.13085938 -0.09960938 C6.07773673 -0.14029883 7.86748812 0.28634 11.015625 2.7265625 C13.48610867 5.99853896 13.82447203 8.39102455 14.0625 12.4375 C11.7525 12.4375 9.4425 12.4375 7.0625 12.4375 C6.77375 11.633125 6.485 10.82875 6.1875 10 C5.32987432 7.3048532 5.32987432 7.3048532 3.0625 6.4375 C-2.26717208 6.09657959 -2.26717208 6.09657959 -6.9375 8.4375 C-7.3539535 10.85849355 -7.3539535 10.85849355 -7.23046875 13.6640625 C-7.22080078 14.6953125 -7.21113281 15.7265625 -7.20117188 16.7890625 C-7.17603516 17.86929688 -7.15089844 18.94953125 -7.125 20.0625 C-7.11146484 21.15046875 -7.09792969 22.2384375 -7.08398438 23.359375 C-7.04854754 26.05257409 -6.99914331 28.74479374 -6.9375 31.4375 C-5.14591511 31.46446365 -3.35421527 31.48387917 -1.5625 31.5 C-0.06589844 31.51740234 -0.06589844 31.51740234 1.4609375 31.53515625 C4.04682453 31.61756602 4.04682453 31.61756602 6.0625 30.4375 C6.71805119 27.91016765 6.71805119 27.91016765 7.0625 25.4375 C9.3725 25.4375 11.6825 25.4375 14.0625 25.4375 C13.69757012 32.7360976 13.69757012 32.7360976 11.04296875 35.66796875 C7.09132614 38.01409471 4.07424203 38.06623455 -0.4375 38 C-1.55705078 38.03577148 -1.55705078 38.03577148 -2.69921875 38.07226562 C-6.89653051 38.06112232 -8.50219836 37.78173195 -11.90625 35.08984375 C-15.73362084 30.09218067 -15.15474734 25.15558303 -15.1875 19.125 C-15.208125 18.18720703 -15.22875 17.24941406 -15.25 16.28320312 C-15.28002543 10.95744194 -15.1187753 6.94430668 -11.9375 2.4375 C-8.49940713 -0.30185806 -4.22126369 0.03463206 0 0 Z " fill="#E4E4E4" transform="translate(576.9375,925.5625)"/>
<path d="M0 0 C3.3125 1.875 3.3125 1.875 5 5 C5.37900404 8.44788401 5.23272247 11.50916289 5 15 C-0.61 15 -6.22 15 -12 15 C-11.34 16.98 -10.68 18.96 -10 21 C-7.03 21 -4.06 21 -1 21 C-1 20.01 -1 19.02 -1 18 C0.98 18 2.96 18 5 18 C4.6875 20.875 4.6875 20.875 4 24 C0.37980288 26.41346475 -1.56394954 26.36002869 -5.875 26.4375 C-7.08929687 26.47746094 -8.30359375 26.51742187 -9.5546875 26.55859375 C-13 26 -13 26 -15.90625 23.97265625 C-18.50936336 20.27681807 -18.74585478 17.36688594 -18.625 13 C-18.64433594 12.30132813 -18.66367187 11.60265625 -18.68359375 10.8828125 C-18.64783478 7.09236204 -18.09179795 5.12744112 -15.8671875 2.0390625 C-10.90861561 -1.48733331 -5.83240247 -0.89614379 0 0 Z " fill="#F2F3F2" transform="translate(539,937)"/>
<path d="M0 0 C1.98 0 3.96 0 6 0 C6.33 6.6 6.66 13.2 7 20 C8.340625 18.515 9.68125 17.03 11.0625 15.5 C15.32935531 11.18588521 15.32935531 11.18588521 18.15625 10.40234375 C20.0625 10.4375 20.0625 10.4375 23 11 C22.61328125 11.44730469 22.2265625 11.89460937 21.828125 12.35546875 C21.30734375 12.96003906 20.7865625 13.56460938 20.25 14.1875 C19.73953125 14.77917969 19.2290625 15.37085938 18.703125 15.98046875 C16.75838317 18.28650436 14.87640665 20.63817511 13 23 C13.7940625 23.92683594 14.588125 24.85367188 15.40625 25.80859375 C16.43762858 27.01811954 17.46887161 28.22776092 18.5 29.4375 C19.02464844 30.04916016 19.54929687 30.66082031 20.08984375 31.29101562 C24 35.88671875 24 35.88671875 24 37 C19.15544041 37.96891192 19.15544041 37.96891192 16 37 C12.540762 33.6580243 9.75722085 29.93159269 7 26 C6.67 29.63 6.34 33.26 6 37 C4.02 37 2.04 37 0 37 C0 24.79 0 12.58 0 0 Z " fill="#F8F9F8" transform="translate(650,926)"/>
<path d="M0 0 C0.66 -0.00773438 1.32 -0.01546875 2 -0.0234375 C4.69626428 0.5137089 5.99880371 1.4958185 8 3.375 C8.50170898 5.70336914 8.50170898 5.70336914 8.49609375 8.41015625 C8.49673828 9.38404297 8.49738281 10.35792969 8.49804688 11.36132812 C8.47806641 12.37646484 8.45808594 13.39160156 8.4375 14.4375 C8.44458984 15.45650391 8.45167969 16.47550781 8.45898438 17.52539062 C8.41061181 23.14032895 8.41061181 23.14032895 8 25.375 C4.78169935 27.52053377 3.73213493 27.67083868 0 27.6875 C-1.299375 27.71263672 -1.299375 27.71263672 -2.625 27.73828125 C-5.52889667 27.29409969 -6.21875069 26.669774 -8 24.375 C-8.63129819 20.90533937 -8.46342202 17.39568122 -8.4375 13.875 C-8.45748047 12.91207031 -8.47746094 11.94914063 -8.49804688 10.95703125 C-8.49740234 10.03277344 -8.49675781 9.10851562 -8.49609375 8.15625 C-8.49887329 6.8887793 -8.49887329 6.8887793 -8.50170898 5.59570312 C-8 3.375 -8 3.375 -6.09399414 1.60107422 C-3.83260128 0.2769848 -2.59473969 -0.03040711 0 0 Z " fill="#0D0D0D" transform="translate(471,930.625)"/>
<path d="M0 0 C23.1721875 -0.061875 23.1721875 -0.061875 46.8125 -0.125 C54.13272339 -0.15231201 54.13272339 -0.15231201 61.60083008 -0.18017578 C67.55407715 -0.18920898 67.55407715 -0.18920898 70.33988953 -0.19088745 C72.28810031 -0.19396126 74.23630725 -0.2010008 76.18449402 -0.21115112 C79.13323593 -0.2257482 82.08174506 -0.22781342 85.03051758 -0.22705078 C86.33526519 -0.23784511 86.33526519 -0.23784511 87.66637135 -0.2488575 C93.65792099 -0.22805267 93.65792099 -0.22805267 97 2 C92.36985711 3.17147057 87.91097436 3.13421864 83.1706543 3.11352539 C81.85282707 3.11374443 81.85282707 3.11374443 80.50837708 3.1139679 C77.61363224 3.11327299 74.7189523 3.10550036 71.82421875 3.09765625 C69.81354304 3.09579057 67.80286688 3.09436737 65.79219055 3.09336853 C60.50681294 3.08955517 55.22146292 3.07973495 49.93609619 3.06866455 C44.54008355 3.05842505 39.14406644 3.05386547 33.74804688 3.04882812 C23.16535248 3.03811163 12.58267854 3.02104937 2 3 C2.00261841 3.6414949 2.00523682 4.28298981 2.00793457 4.94392395 C2.0734224 23.80887472 1.85632626 42.66033165 1.53643799 61.52191162 C1.47448294 65.20403427 1.41510655 68.88619859 1.35546875 72.56835938 C1.23940495 79.71228063 1.12064407 86.85615449 1 94 C0.67 94 0.34 94 0 94 C0 62.98 0 31.96 0 0 Z " fill="#202020" transform="translate(417,602)"/>
<path d="M0 0 C1.216875 -0.01933594 2.43375 -0.03867187 3.6875 -0.05859375 C7 0.4375 7 0.4375 9.4375 2.21484375 C11 4.4375 11 4.4375 11 8.4375 C8.125 8.625 8.125 8.625 5 8.4375 C4.34 7.4475 3.68 6.4575 3 5.4375 C-0.58357241 5.18734127 -0.58357241 5.18734127 -4 5.4375 C-4.33 7.0875 -4.66 8.7375 -5 10.4375 C-3.77023437 10.49357422 -3.77023437 10.49357422 -2.515625 10.55078125 C-1.43796875 10.61652344 -0.3603125 10.68226563 0.75 10.75 C1.81734375 10.80800781 2.8846875 10.86601563 3.984375 10.92578125 C7.25277503 11.48039317 8.73250616 12.03503629 11 14.4375 C11.53125 16.59375 11.53125 16.59375 11.5 18.9375 C11.5103125 19.7109375 11.520625 20.484375 11.53125 21.28125 C11 23.4375 11 23.4375 9.40625 25.1953125 C6.1620294 26.87008872 3.63735483 26.83561878 0 26.8125 C-1.8253125 26.82410156 -1.8253125 26.82410156 -3.6875 26.8359375 C-7.15631127 26.41869841 -8.60181779 25.93659582 -11 23.4375 C-11.25 20.75 -11.25 20.75 -11 18.4375 C-9.02 18.4375 -7.04 18.4375 -5 18.4375 C-4.67 19.4275 -4.34 20.4175 -4 21.4375 C-1.36 21.4375 1.28 21.4375 4 21.4375 C4 19.7875 4 18.1375 4 16.4375 C2.98679687 16.36402344 2.98679687 16.36402344 1.953125 16.2890625 C1.06109375 16.21429687 0.1690625 16.13953125 -0.75 16.0625 C-2.07257813 15.95808594 -2.07257813 15.95808594 -3.421875 15.8515625 C-6.02386288 15.43366748 -7.77433233 14.83104867 -10 13.4375 C-11.55460305 10.32829391 -11.72720693 6.80666972 -11 3.4375 C-7.78371889 -0.07261419 -4.58460115 0.00485657 0 0 Z " fill="#F4F5F5" transform="translate(408,936.5625)"/>
<path d="M0 0 C1.98 0 3.96 0 6 0 C6.33 0.66 6.66 1.32 7 2 C7.66 1.34 8.32 0.68 9 0 C11.2421875 -0.3359375 11.2421875 -0.3359375 13.875 -0.375 C14.73867188 -0.40335938 15.60234375 -0.43171875 16.4921875 -0.4609375 C19 0 19 0 21.3046875 1.3203125 C24.06632468 5.68548095 23.41634408 10.20849488 23.25 15.25 C23.23195313 16.28125 23.21390625 17.3125 23.1953125 18.375 C23.14822712 20.91761064 23.0824805 23.45833162 23 26 C21.02 26 19.04 26 17 26 C16.97494385 25.39937744 16.9498877 24.79875488 16.92407227 24.17993164 C16.8084472 21.47388563 16.68557064 18.76821717 16.5625 16.0625 C16.52318359 15.11697266 16.48386719 14.17144531 16.44335938 13.19726562 C16.40146484 12.29814453 16.35957031 11.39902344 16.31640625 10.47265625 C16.27974854 9.64000244 16.24309082 8.80734863 16.20532227 7.94946289 C16.20632897 5.99661142 16.20632897 5.99661142 15 5 C12.66702567 4.95907063 10.33294775 4.95758277 8 5 C6.85345518 7.29308963 6.80270883 8.79909656 6.68359375 11.3515625 C6.64169922 12.20234375 6.59980469 13.053125 6.55664062 13.9296875 C6.51732422 14.81914063 6.47800781 15.70859375 6.4375 16.625 C6.37272461 17.97078125 6.37272461 17.97078125 6.30664062 19.34375 C6.20043139 21.56234283 6.09838806 23.7810488 6 26 C4.02 26 2.04 26 0 26 C0 17.42 0 8.84 0 0 Z " fill="#F1F1F1" transform="translate(492,937)"/>
<path d="M0 0 C1.98 0 3.96 0 6 0 C6.33 6.93 6.66 13.86 7 21 C9.64 21 12.28 21 15 21 C16.58403524 19.41596476 16.21974935 17.7228362 16.31640625 15.52734375 C16.35830078 14.62822266 16.40019531 13.72910156 16.44335938 12.80273438 C16.48267578 11.85720703 16.52199219 10.91167969 16.5625 9.9375 C16.60568359 8.98810547 16.64886719 8.03871094 16.69335938 7.06054688 C16.79979276 4.70718647 16.90181008 2.35371646 17 0 C18.98 0 20.96 0 23 0 C23 8.58 23 17.16 23 26 C20 26 17 26 14 26 C13.22785156 26.05800781 12.45570313 26.11601563 11.66015625 26.17578125 C10.80292969 26.22089844 9.94570313 26.26601563 9.0625 26.3125 C7.78052734 26.39951172 7.78052734 26.39951172 6.47265625 26.48828125 C4 26 4 26 1.69921875 24.15625 C-0.79654368 19.520443 -0.43064072 15.36007764 -0.25 10.1875 C-0.23195313 9.20845703 -0.21390625 8.22941406 -0.1953125 7.22070312 C-0.14832887 4.81279229 -0.08265694 2.40690665 0 0 Z " fill="#F7F7F7" transform="translate(367,937)"/>
<path d="M0 0 C1.98 0 3.96 0 6 0 C6.09901748 4.62640153 6.17153649 9.25218387 6.21972656 13.87939453 C6.2398188 15.45274604 6.26709799 17.02602308 6.30175781 18.59912109 C6.35038494 20.86314272 6.37299135 23.12617573 6.390625 25.390625 C6.41127014 26.09181458 6.43191528 26.79300415 6.45318604 27.51544189 C6.45473369 30.89831669 6.22507731 32.69724622 4.18261719 35.44458008 C1.08232003 37.65397529 -1.23177375 37.49737648 -5 37.4375 C-6.8253125 37.43556641 -6.8253125 37.43556641 -8.6875 37.43359375 C-12.17994822 36.97644546 -13.64150411 36.58747607 -16 34 C-16.609375 31.73828125 -16.609375 31.73828125 -16.75 29.3125 C-16.80671875 28.50425781 -16.8634375 27.69601562 -16.921875 26.86328125 C-16.94765625 26.24839844 -16.9734375 25.63351562 -17 25 C-14.69 25 -12.38 25 -10 25 C-9.67 26.98 -9.34 28.96 -9 31 C-6.66705225 31.04241723 -4.33297433 31.04092937 -2 31 C-0.11368457 29.11368457 -0.75734708 25.85799307 -0.68359375 23.33984375 C-0.66281265 22.67537735 -0.64203156 22.01091095 -0.62062073 21.3263092 C-0.55506342 19.19681457 -0.49621215 17.06719332 -0.4375 14.9375 C-0.39432061 13.49673153 -0.35070651 12.05597601 -0.30664062 10.61523438 C-0.19937607 7.0769596 -0.09812629 3.53854131 0 0 Z " fill="#F7F7F7" transform="translate(355,926)"/>
<path d="M0 0 C2.75630514 1.37541271 3.33488857 2.28648508 5 5 C5 6.32 5 7.64 5 9 C3.02 9 1.04 9 -1 9 C-1.66 7.68 -2.32 6.36 -3 5 C-5.91652174 4.83318891 -5.91652174 4.83318891 -9 5 C-11.28027649 6.85637822 -11.28027649 6.85637822 -11.265625 9.75 C-11.26046875 10.8225 -11.2553125 11.895 -11.25 13 C-11.25515625 14.0725 -11.2603125 15.145 -11.265625 16.25 C-11.28027649 19.14362178 -11.28027649 19.14362178 -9 21 C-5.91652174 21.16681109 -5.91652174 21.16681109 -3 21 C-2.34 19.68 -1.68 18.36 -1 17 C0.98 17 2.96 17 5 17 C4.51314871 22.47707703 4.51314871 22.47707703 2.359375 24.671875 C-0.7220359 26.40644405 -2.9778501 26.43346084 -6.5 26.4375 C-8.18609375 26.46650391 -8.18609375 26.46650391 -9.90625 26.49609375 C-13.615478 25.90130593 -14.74280591 24.94393474 -17 22 C-18.11083501 18.66749498 -18.16759585 16.06961042 -18.1875 12.5625 C-18.20167969 11.42941406 -18.21585938 10.29632812 -18.23046875 9.12890625 C-18.00680538 6.09239167 -17.70318718 4.48405041 -16 2 C-11.12388978 -1.25074014 -5.6951146 -0.7056525 0 0 Z " fill="#F4F4F4" transform="translate(639,937)"/>
<path d="M0 0 C1.98 0 3.96 0 6 0 C6 1.98 6 3.96 6 6 C8.31 6 10.62 6 13 6 C13 7.65 13 9.3 13 11 C10.69 11 8.38 11 6 11 C6.33 15.95 6.66 20.9 7 26 C8.98 26.66 10.96 27.32 13 28 C13 29.32 13 30.64 13 32 C11.3973218 32.10824843 9.79254252 32.18570645 8.1875 32.25 C7.29417969 32.29640625 6.40085937 32.3428125 5.48046875 32.390625 C3 32 3 32 1.1875 30.53125 C-0.57210394 26.78051528 -0.31959702 23.33484634 -0.1875 19.25 C-0.17396484 18.45722656 -0.16042969 17.66445313 -0.14648438 16.84765625 C-0.11125223 14.89814436 -0.05744821 12.94898374 0 11 C-0.99 11 -1.98 11 -3 11 C-3 9.35 -3 7.7 -3 6 C-2.01 6 -1.02 6 0 6 C0 4.02 0 2.04 0 0 Z " fill="#F6F6F6" transform="translate(426,931)"/>
<path d="M0 0 C0.33 0 0.66 0 1 0 C1.33 7.92 1.66 15.84 2 24 C11.73289481 24.81989159 11.73289481 24.81989159 15 23 C15.65555119 20.47266765 15.65555119 20.47266765 16 18 C18.31 18 20.62 18 23 18 C22.63507012 25.2985976 22.63507012 25.2985976 19.98046875 28.23046875 C16.02882614 30.57659471 13.01174203 30.62873455 8.5 30.5625 C7.75363281 30.58634766 7.00726562 30.61019531 6.23828125 30.63476562 C1.98382452 30.62347061 0.42030064 30.33418234 -3.03125 27.58984375 C-5 25 -5 25 -5 23 C-4.34 23 -3.68 23 -3 23 C-3 15.74 -3 8.48 -3 1 C-2.34 1.33 -1.68 1.66 -1 2 C-0.67 1.34 -0.34 0.68 0 0 Z " fill="#F4F5F5" transform="translate(568,933)"/>
<path d="M0 0 C10.26576008 -0.04627383 20.53149548 -0.08184393 30.79733849 -0.10362434 C35.56382294 -0.11407612 40.33023621 -0.12826064 45.09667969 -0.15087891 C49.69374927 -0.17255773 54.29075024 -0.18455812 58.88786697 -0.18975449 C60.64460964 -0.19345919 62.40134841 -0.20069322 64.15806198 -0.21146011 C66.61245688 -0.22590924 69.06656573 -0.22798073 71.52099609 -0.22705078 C72.25251389 -0.23424133 72.98403168 -0.24143188 73.73771667 -0.24884033 C78.77189568 -0.22810432 78.77189568 -0.22810432 81 2 C79.31496301 3.68503699 77.23740116 3.11965983 74.98905945 3.12442017 C74.27264786 3.12082489 73.55623627 3.11722961 72.81811523 3.11352539 C71.6913588 3.11374443 71.6913588 3.11374443 70.5418396 3.1139679 C68.04739541 3.11326863 65.55302497 3.10547564 63.05859375 3.09765625 C61.33366436 3.09579212 59.60873443 3.09436819 57.88380432 3.09336853 C53.33487497 3.08954297 48.78597733 3.07971238 44.23706055 3.06866455 C39.59879994 3.05845124 34.96053423 3.05387108 30.32226562 3.04882812 C21.21482978 3.03809014 12.10741752 3.02101327 3 3 C3 2.34 3 1.68 3 1 C2.01 0.67 1.02 0.34 0 0 Z " fill="#E8E8E7" transform="translate(706,681)"/>
<path d="M0 0 C0.99 1.32 1.98 2.64 3 4 C3.66 4 4.32 4 5 4 C5.33 6.64 5.66 9.28 6 12 C6.99902344 12.13277344 7.99804688 12.26554688 9.02734375 12.40234375 C10.31769531 12.57894531 11.60804688 12.75554688 12.9375 12.9375 C14.86916016 13.19853516 14.86916016 13.19853516 16.83984375 13.46484375 C20 14 20 14 21 15 C21.125 17.5 21.125 17.5 21 20 C20 21 20 21 18.15234375 21.09765625 C16.1015625 21.06510417 14.05078125 21.03255208 12 21 C11.67 19.68 11.34 18.36 11 17 C9.02 17 7.04 17 5 17 C5.60183749 19.02045442 6.27306096 21.02111039 7 23 C9.92460429 24.46230215 12.55652824 24.20908727 15.8125 24.25 C17.03582031 24.27578125 18.25914062 24.3015625 19.51953125 24.328125 C23.19335454 23.98177129 25.04424837 23.13940118 28 21 C27.04908327 23.50696229 26.06198622 24.94401245 24.0625 26.75 C19.44046014 28.63654688 14.92876009 28.23305871 10 28 C10 27.34 10 26.68 10 26 C9.13375 25.9071875 9.13375 25.9071875 8.25 25.8125 C5.11309013 24.67972699 3.90832496 22.65802405 2 20 C1.67 21.98 1.34 23.96 1 26 C0.67 26 0.34 26 0 26 C0 17.42 0 8.84 0 0 Z " fill="#121211" transform="translate(392,938)"/>
<path d="M0 0 C1.98 0 3.96 0 6 0 C6 12.21 6 24.42 6 37 C4.02 37 2.04 37 0 37 C0 24.79 0 12.58 0 0 Z " fill="#FAFAFA" transform="translate(597,926)"/>
<path d="M0 0 C0.05410136 3.06273831 0.09372225 6.12451452 0.125 9.1875 C0.14175781 10.05181641 0.15851563 10.91613281 0.17578125 11.80664062 C0.21779717 17.28971826 0.20883403 21.52846483 -3.609375 25.80078125 C-7.09310633 27.54833929 -10.45034042 27.318407 -14.25 27.1875 C-14.99507813 27.17396484 -15.74015625 27.16042969 -16.5078125 27.14648438 C-18.33885416 27.11127204 -20.16952169 27.05746851 -22 27 C-21.67 26.34 -21.34 25.68 -21 25 C-19.02 25.33 -17.04 25.66 -15 26 C-15 25.34 -15 24.68 -15 24 C-16.65 24 -18.3 24 -20 24 C-20 23.34 -20 22.68 -20 22 C-19.31292969 21.96261719 -18.62585938 21.92523437 -17.91796875 21.88671875 C-17.01691406 21.82097656 -16.11585938 21.75523437 -15.1875 21.6875 C-14.29417969 21.62949219 -13.40085937 21.57148437 -12.48046875 21.51171875 C-9.58023048 20.91340188 -8.81745396 20.28664066 -7 18 C-6.5005539 15.98207174 -6.5005539 15.98207174 -6.48828125 13.76953125 C-6.45283203 12.96708984 -6.41738281 12.16464844 -6.38085938 11.33789062 C-6.35830078 10.50451172 -6.33574219 9.67113281 -6.3125 8.8125 C-6.27833984 7.96751953 -6.24417969 7.12253906 -6.20898438 6.25195312 C-6.12658529 4.16843351 -6.06161355 2.08423784 -6 0 C-3.50907189 -1.24546405 -2.58919267 -0.7767578 0 0 Z " fill="#F8F8F8" transform="translate(486,936)"/>
<path d="M0 0 C3.9115617 0.06103867 5.49468337 0.22481374 8.9375 2.25 C11.57847538 6.80340583 11.09774821 10.15877682 10.75 15.375 C5.14 15.375 -0.47 15.375 -6.25 15.375 C-5.59 17.355 -4.93 19.335 -4.25 21.375 C-1.94 21.705 0.37 22.035 2.75 22.375 C2.42 23.035 2.09 23.695 1.75 24.375 C-4.57491289 23.89764808 -4.57491289 23.89764808 -7.1875 21.875 C-8.83090609 18.00816213 -8.43437251 14.55411016 -8.25 10.375 C-3.96 10.705 0.33 11.035 4.75 11.375 C4.42 9.725 4.09 8.075 3.75 6.375 C1.11 5.715 -1.53 5.055 -4.25 4.375 C-3.59 3.715 -2.93 3.055 -2.25 2.375 C-3.57 2.045 -4.89 1.715 -6.25 1.375 C-4.53055699 -0.34444301 -2.34584777 0.08154016 0 0 Z " fill="#FAFAFA" transform="translate(533.25,936.625)"/>
<path d="M0 0 C2.31 0 4.62 0 7 0 C8.125 6.75 8.125 6.75 7 9 C4.69 9.33 2.38 9.66 0 10 C-0.33 18.91 -0.66 27.82 -1 37 C-1.99 37 -2.98 37 -4 37 C-4 26.11 -4 15.22 -4 4 C-3.01 4.33 -2.02 4.66 -1 5 C-0.67 3.35 -0.34 1.7 0 0 Z " fill="#101010" transform="translate(609,926)"/>
<path d="M0 0 C1.98 0 3.96 0 6 0 C6 8.58 6 17.16 6 26 C4.02 26 2.04 26 0 26 C0 17.42 0 8.84 0 0 Z " fill="#F3F4F4" transform="translate(609,937)"/>
<path d="M0 0 C1.98 0 3.96 0 6 0 C6 1.32 6 2.64 6 4 C5.34 4 4.68 4 4 4 C4.66 4.66 5.32 5.32 6 6 C6.22705078 8.06298828 6.22705078 8.06298828 6.1953125 10.5703125 C6.18886719 11.46621094 6.18242187 12.36210938 6.17578125 13.28515625 C6.15902344 14.22230469 6.14226562 15.15945313 6.125 16.125 C6.11597656 17.06988281 6.10695313 18.01476562 6.09765625 18.98828125 C6.07404522 21.32577292 6.04111516 23.66276123 6 26 C4.02 26 2.04 26 0 26 C0 17.42 0 8.84 0 0 Z " fill="#EDEDED" transform="translate(492,937)"/>
<path d="M0 0 C1.67542976 0.28604898 3.34385343 0.61781233 5 1 C5.33 2.32 5.66 3.64 6 5 C6.66 4.34 7.32 3.68 8 3 C8.1875 6.375 8.1875 6.375 8 10 C4.91111478 12.05925681 4.29064073 12.2390374 0.8125 12.125 C-1.0746875 12.063125 -1.0746875 12.063125 -3 12 C-3.33 10.35 -3.66 8.7 -4 7 C-5.65 7.66 -7.3 8.32 -9 9 C-9.33 12.63 -9.66 16.26 -10 20 C-8.02 20 -6.04 20 -4 20 C-4 20.99 -4 21.98 -4 23 C-9.46307885 23.36420526 -9.46307885 23.36420526 -11.67578125 21.86328125 C-13.55700036 19.21625613 -13.39865236 17.21672125 -13.375 14 C-13.38273438 12.948125 -13.39046875 11.89625 -13.3984375 10.8125 C-13 8 -13 8 -11.66796875 6.14453125 C-9.10388507 4.38510147 -7.0179621 4.6789402 -4 5 C-2 7 -2 7 -2 10 C-0.02 10 1.96 10 4 10 C2.12297673 5.10437307 2.12297673 5.10437307 -1 1 C-0.67 0.67 -0.34 0.34 0 0 Z " fill="#131313" transform="translate(640,936)"/>
<path d="M0 0 C0.66 0.66 1.32 1.32 2 2 C1.01 2.33 0.02 2.66 -1 3 C-0.67 3.99 -0.34 4.98 0 6 C0 6.99 0 7.98 0 9 C1.61483604 11.12812321 3.24116727 13.12373356 5 15.125 C10 20.89527027 10 20.89527027 10 22 C6.76572093 22.57754983 5.09943495 22.85862725 2 22 C-2.17090636 18.36454783 -5.67831458 14.47450325 -6.40625 8.875 C-5.76033765 4.30392798 -3.39525426 2.97084748 0 0 Z " fill="#F3F3F3" transform="translate(664,941)"/>
<path d="M0 0 C7.35159363 0.60258964 7.35159363 0.60258964 9.9375 2.1875 C11.4152657 4.70839444 11.68027346 7.1224611 12 10 C11.01 10 10.02 10 9 10 C8.67 15.61 8.34 21.22 8 27 C7.01 27.33 6.02 27.66 5 28 C4.9906543 27.41508789 4.98130859 26.83017578 4.97167969 26.22753906 C4.91786721 23.5675142 4.83424551 20.90922778 4.75 18.25 C4.73582031 17.32960938 4.72164063 16.40921875 4.70703125 15.4609375 C4.62537139 10.05616603 4.62537139 10.05616603 1.953125 5.546875 C1.30859375 5.03640625 0.6640625 4.5259375 0 4 C0 2.66666667 0 1.33333333 0 0 Z " fill="#E1E2E2" transform="translate(474,926)"/>
<path d="M0 0 C11.96073154 -0.06939946 23.92141546 -0.12276002 35.88230705 -0.15543652 C41.43577034 -0.17111672 46.98909626 -0.19239788 52.54248047 -0.22631836 C57.89816774 -0.25882792 63.25372259 -0.27683526 68.60950089 -0.28463173 C70.65652681 -0.29019038 72.70354519 -0.30104452 74.75051498 -0.31719017 C77.60971702 -0.33885281 80.46836632 -0.34197163 83.32763672 -0.34057617 C84.18071411 -0.351362 85.0337915 -0.36214783 85.91271973 -0.3732605 C88.26681519 -0.36076355 88.26681519 -0.36076355 92 0 C92.99 1.485 92.99 1.485 94 3 C92.02090602 3.02686553 90.04171029 3.04633375 88.0625 3.0625 C86.96035156 3.07410156 85.85820313 3.08570313 84.72265625 3.09765625 C82 3 82 3 81 2 C78.4755093 1.87499848 75.97700383 1.81396462 73.45092773 1.79467773 C72.66074249 1.78477814 71.87055725 1.77487854 71.056427 1.76467896 C68.43218022 1.73297152 65.80791531 1.70827021 63.18359375 1.68359375 C61.36897803 1.66303219 59.5543672 1.64203594 57.73976135 1.62062073 C52.9541518 1.56531759 48.16849844 1.5159448 43.3828125 1.46777344 C38.50321536 1.41761843 33.62368215 1.36190112 28.74414062 1.30664062 C19.16281498 1.19895832 9.58143392 1.09753587 0 1 C0 0.67 0 0.34 0 0 Z " fill="#EAEAE9" transform="translate(696,557)"/>
<path d="M0 0 C0.721875 0.00257813 1.44375 0.00515625 2.1875 0.0078125 C2.909375 0.00523437 3.63125 0.00265625 4.375 0 C6.1875 0.1328125 6.1875 0.1328125 7.1875 1.1328125 C7.62087515 4.2613962 7.75009312 7.41867731 7.9375 10.5703125 C8.00582031 11.45525391 8.07414063 12.34019531 8.14453125 13.25195312 C8.21994141 14.52135742 8.21994141 14.52135742 8.296875 15.81640625 C8.34811523 16.59556396 8.39935547 17.37472168 8.45214844 18.17749023 C8.32114746 19.14537476 8.32114746 19.14537476 8.1875 20.1328125 C7.1975 20.7928125 6.2075 21.4528125 5.1875 22.1328125 C5.1875 15.2028125 5.1875 8.2728125 5.1875 1.1328125 C3.2075 1.1328125 1.2275 1.1328125 -0.8125 1.1328125 C-0.8125 10.7028125 -0.8125 20.2728125 -0.8125 30.1328125 C-2.8125 28.1328125 -2.8125 28.1328125 -3.05541992 25.44311523 C-3.05131104 24.32880127 -3.04720215 23.2144873 -3.04296875 22.06640625 C-3.04103516 20.85919922 -3.03910156 19.65199219 -3.03710938 18.40820312 C-3.02486328 17.14169922 -3.01261719 15.87519531 -3 14.5703125 C-2.99935547 13.29994141 -2.99871094 12.02957031 -2.99804688 10.72070312 C-2.94751641 0.21598181 -2.94751641 0.21598181 0 0 Z " fill="#030303" transform="translate(650.8125,924.8671875)"/>
<path d="M0 0 C0.33 0 0.66 0 1 0 C1.04254356 1.99954746 1.04080783 4.00041636 1 6 C0.67 6.33 0.34 6.66 0 7 C0.66 7.66 1.32 8.32 2 9 C0.07617259 10.92382741 -3.25661659 10.21841339 -5.8125 10.25 C-7.05644531 10.27578125 -8.30039062 10.3015625 -9.58203125 10.328125 C-13.14746738 9.98584313 -14.56017521 9.57368051 -17 7 C-17.25 4.3125 -17.25 4.3125 -17 2 C-15.02 2 -13.04 2 -11 2 C-10.67 2.99 -10.34 3.98 -10 5 C-7.36 5 -4.72 5 -2 5 C-1.34 3.35 -0.68 1.7 0 0 Z " fill="#EFEFEF" transform="translate(414,953)"/>
<path d="M0 0 C1.19799597 2.39599194 1.06747603 3.70126249 1 6.375 C0.95515594 12.01040327 1.12789691 17.62119742 1.375 23.25 C1.4059375 24.10126465 1.436875 24.9525293 1.46875 25.82958984 C1.75952715 32.02920092 3.03895986 37.11687958 5 43 C4.01 43 3.02 43 2 43 C-2.14684558 28.91183266 -3.34896342 15.67377151 -1 1 C-0.67 0.67 -0.34 0.34 0 0 Z " fill="#E6E5E5" transform="translate(642,770)"/>
<path d="M0 0 C0.66 0.33 1.32 0.66 2 1 C1.98428955 1.74161377 1.9685791 2.48322754 1.95239258 3.24731445 C1.89009286 6.60229896 1.85102493 9.95716186 1.8125 13.3125 C1.78736328 14.47974609 1.76222656 15.64699219 1.73632812 16.84960938 C1.72666016 17.96787109 1.71699219 19.08613281 1.70703125 20.23828125 C1.6913208 21.26993408 1.67561035 22.30158691 1.65942383 23.36450195 C1.77122287 26.05377054 1.77122287 26.05377054 3.51831055 27.86010742 C4.00726807 28.23627197 4.49622559 28.61243652 5 29 C5 28.01 5 27.02 5 26 C5.33 25.01 5.66 24.02 6 23 C6.33 23.99 6.66 24.98 7 26 C7.66 26 8.32 26 9 26 C9 26.99 9 27.98 9 29 C10.65 29 12.3 29 14 29 C14 29.66 14 30.32 14 31 C13.071875 30.979375 12.14375 30.95875 11.1875 30.9375 C7.97713989 30.84230396 7.97713989 30.84230396 5 32 C1.76985216 29.84656811 0.24313463 28.72940389 -1 25 C-1.09352995 23.25063696 -1.13069946 21.49795403 -1.1328125 19.74609375 C-1.13410156 18.72708984 -1.13539063 17.70808594 -1.13671875 16.65820312 C-1.13285156 15.59537109 -1.12898438 14.53253906 -1.125 13.4375 C-1.12886719 12.37080078 -1.13273437 11.30410156 -1.13671875 10.20507812 C-1.13542969 9.18736328 -1.13414062 8.16964844 -1.1328125 7.12109375 C-1.13168457 6.1870874 -1.13055664 5.25308105 -1.12939453 4.29077148 C-1 2 -1 2 0 0 Z " fill="#E6E6E7" transform="translate(457,931)"/>
<path d="M0 0 C3.95679828 -0.46009282 5.54625856 -0.33274372 8.8125 2.0625 C11.3525648 5.47344416 11.75307684 7.80230628 12 12 C9.69 12 7.38 12 5 12 C4.71125 11.21625 4.4225 10.4325 4.125 9.625 C3.15087746 6.90328368 3.15087746 6.90328368 1 5 C1 4.34 1 3.68 1 3 C0.67 2.01 0.34 1.02 0 0 Z " fill="#F2F2F2" transform="translate(579,926)"/>
<path d="M0 0 C0.66 0.66 1.32 1.32 2 2 C1.68232666 2.50974365 1.36465332 3.0194873 1.03735352 3.54467773 C-0.34950102 6.82723742 -0.41456533 9.72843332 -0.59765625 13.28515625 C-0.63684677 13.98265488 -0.67603729 14.6801535 -0.71641541 15.39878845 C-0.84009537 17.61966807 -0.95203505 19.84092704 -1.0625 22.0625 C-1.17816274 24.2875049 -1.29637854 26.51230707 -1.41929626 28.73692322 C-1.52994871 30.75278556 -1.63248468 32.76908853 -1.73461914 34.78540039 C-2 38 -2 38 -3 41 C-5.13272776 36.73454448 -4.18585187 31.10753935 -4.18530273 26.41625977 C-4.18747353 24.33784018 -4.20558751 22.25996516 -4.22460938 20.18164062 C-4.22754667 18.84635597 -4.22952921 17.51106881 -4.23046875 16.17578125 C-4.23457764 14.96833252 -4.23868652 13.76088379 -4.24291992 12.5168457 C-3.9784748 8.68837131 -3.17495929 5.63780434 -2 2 C-1.34 2 -0.68 2 0 2 C0 1.34 0 0.68 0 0 Z " fill="#151515" transform="translate(642,763)"/>
<path d="M0 0 C2.31 0 4.62 0 7 0 C7.45572917 1.98567708 7.91145833 3.97135417 8.3671875 5.95703125 C8.98007723 8.27742974 8.98007723 8.27742974 11 11 C7.85152974 11.78711756 5.76741572 12.29037352 2.6875 11.125 C0.05047056 7.80429626 0.17340413 4.1356884 0 0 Z " fill="#E7E8E8" transform="translate(338,951)"/>
<path d="M0 0 C3.4375 0.1875 3.4375 0.1875 4.4375 1.1875 C4.47813832 2.85367115 4.480221 4.52138095 4.4375 6.1875 C6.0875 6.1875 7.7375 6.1875 9.4375 6.1875 C9.4375 6.8475 9.4375 7.5075 9.4375 8.1875 C7.1275 8.1875 4.8175 8.1875 2.4375 8.1875 C2.4375 6.2075 2.4375 4.2275 2.4375 2.1875 C0.4575 2.1875 -1.5225 2.1875 -3.5625 2.1875 C-3.5625 4.1675 -3.5625 6.1475 -3.5625 8.1875 C-4.5525 8.1875 -5.5425 8.1875 -6.5625 8.1875 C-6.5625 9.8375 -6.5625 11.4875 -6.5625 13.1875 C-5.5725 13.1875 -4.5825 13.1875 -3.5625 13.1875 C-3.5625 17.4775 -3.5625 21.7675 -3.5625 26.1875 C-4.2225 25.8575 -4.8825 25.5275 -5.5625 25.1875 C-5.6875 17.5625 -5.6875 17.5625 -4.5625 14.1875 C-5.2225 14.1875 -5.8825 14.1875 -6.5625 14.1875 C-6.8925 14.8475 -7.2225 15.5075 -7.5625 16.1875 C-7.5625 13.2175 -7.5625 10.2475 -7.5625 7.1875 C-6.9025 7.1875 -6.2425 7.1875 -5.5625 7.1875 C-5.60375 6.40375 -5.645 5.62 -5.6875 4.8125 C-5.48252644 0.50805522 -4.15518434 0.21869391 0 0 Z " fill="#050405" transform="translate(429.5625,928.8125)"/>
<path d="M0 0 C3.35098794 6.70197589 3.13050666 13.04074362 3.0625 20.375 C3.05798828 21.30183594 3.05347656 22.22867188 3.04882812 23.18359375 C3.03711574 25.45579709 3.02071372 27.72786388 3 30 C2.34 30 1.68 30 1 30 C0.67 30.66 0.34 31.32 0 32 C0 21.44 0 10.88 0 0 Z " fill="#131314" transform="translate(848,608)"/>
<path d="M0 0 C1.44632812 -0.00386719 1.44632812 -0.00386719 2.921875 -0.0078125 C5.25 0.125 5.25 0.125 6.25 1.125 C6.375 3.625 6.375 3.625 6.25 6.125 C5.25 7.125 5.25 7.125 3.40234375 7.22265625 C1.3515625 7.19010417 -0.69921875 7.15755208 -2.75 7.125 C-3.08 5.475 -3.41 3.825 -3.75 2.125 C-6.06 2.125 -8.37 2.125 -10.75 2.125 C-10.75 1.795 -10.75 1.465 -10.75 1.125 C-7.10861758 0.28774784 -3.73405504 -0.01009204 0 0 Z " fill="#101010" transform="translate(406.75,951.875)"/>
<path d="M0 0 C1.98 0 3.96 0 6 0 C5.5131397 5.47717842 5.5131397 5.47717842 3.34375 7.6875 C0.3113079 9.38566757 -1.79739672 9.30008489 -5.25 9.1875 C-6.86648438 9.14689453 -6.86648438 9.14689453 -8.515625 9.10546875 C-9.33546875 9.07066406 -10.1553125 9.03585937 -11 9 C-11 8.34 -11 7.68 -11 7 C-9.35 7 -7.7 7 -6 7 C-6.99 6.34 -7.98 5.68 -9 5 C-7.329375 4.87625 -7.329375 4.87625 -5.625 4.75 C-1.94246056 4.42126213 -1.94246056 4.42126213 -0.5625 1.9375 C-0.376875 1.298125 -0.19125 0.65875 0 0 Z " fill="#F5F6F6" transform="translate(638,954)"/>
<path d="M0 0 C0 0.66 0 1.32 0 2 C-0.66 2.66 -1.32 3.32 -2 4 C-1.34 4.66 -0.68 5.32 0 6 C0.22705078 7.97119141 0.22705078 7.97119141 0.1953125 10.3515625 C0.18564453 11.62773438 0.18564453 11.62773438 0.17578125 12.9296875 C0.15902344 13.81914063 0.14226562 14.70859375 0.125 15.625 C0.11597656 16.5221875 0.10695313 17.419375 0.09765625 18.34375 C0.0740497 20.56276586 0.0411231 22.78125077 0 25 C-0.33 25 -0.66 25 -1 25 C-1.04898437 23.80761719 -1.09796875 22.61523438 -1.1484375 21.38671875 C-1.22347604 19.82028932 -1.2990234 18.25388421 -1.375 16.6875 C-1.4059375 15.90181641 -1.436875 15.11613281 -1.46875 14.30664062 C-1.50742187 13.54931641 -1.54609375 12.79199219 -1.5859375 12.01171875 C-1.6173584 11.31522217 -1.6487793 10.61872559 -1.68115234 9.90112305 C-1.92118253 7.67467261 -1.92118253 7.67467261 -4 5 C-7.5 4.58333333 -7.5 4.58333333 -11 5 C-11.66 5.66 -12.32 6.32 -13 7 C-13.66 7 -14.32 7 -15 7 C-15 4 -15 4 -13.125 1.8125 C-8.74461583 -0.72812282 -4.94813666 -0.34588916 0 0 Z " fill="#FBFCFC" transform="translate(511,937)"/>
<path d="M0 0 C2.64 0 5.28 0 8 0 C8 0.33 8 0.66 8 1 C6.02 1 4.04 1 2 1 C2.60183749 3.02045442 3.27306096 5.02111039 4 7 C6.92460429 8.46230215 9.55652824 8.20908727 12.8125 8.25 C14.03582031 8.27578125 15.25914062 8.3015625 16.51953125 8.328125 C20.19335454 7.98177129 22.04424837 7.13940118 25 5 C24.04908327 7.50696229 23.06198622 8.94401245 21.0625 10.75 C16.44046014 12.63654688 11.92876009 12.23305871 7 12 C7 11.34 7 10.68 7 10 C6.401875 9.9175 5.80375 9.835 5.1875 9.75 C2.29917175 8.75971603 1.47257348 7.65063227 0 5 C-0.1875 2.25 -0.1875 2.25 0 0 Z " fill="#1E1E1E" transform="translate(395,954)"/>
<path d="M0 0 C1 1 1 1 1 6 C-2.63 6 -6.26 6 -10 6 C-9.625 3.0625 -9.625 3.0625 -9 0 C-5.90842747 -1.54578627 -3.31526981 -0.60277633 0 0 Z " fill="#080807" transform="translate(537,942)"/>
<path d="M0 0 C1.25 1.6875 1.25 1.6875 1.25 5.6875 C-0.73 5.6875 -2.71 5.6875 -4.75 5.6875 C-5.41 4.0375 -6.07 2.3875 -6.75 0.6875 C-10.09252724 0.61322162 -12.5535914 0.62203047 -15.75 1.6875 C-16.41 1.0275 -17.07 0.3675 -17.75 -0.3125 C-15.8352312 -0.67678777 -13.91807707 -1.02855306 -12 -1.375 C-10.93265625 -1.57222656 -9.8653125 -1.76945313 -8.765625 -1.97265625 C-5.11057899 -2.3845591 -2.94650389 -2.20987792 0 0 Z " fill="#F0F0F0" transform="translate(417.75,939.3125)"/>
<path d="M0 0 C0.66 0 1.32 0 2 0 C4.35582065 4.62816733 4.23521469 8.75534135 4.125 13.8125 C4.11597656 14.60076172 4.10695313 15.38902344 4.09765625 16.20117188 C4.07422504 18.13424666 4.03835838 20.0671638 4 22 C3.01 22 2.02 22 1 22 C0.67 14.74 0.34 7.48 0 0 Z " fill="#1A1B1A" transform="translate(686,767)"/>
<path d="M0 0 C0.33 0 0.66 0 1 0 C1.12375 1.27875 1.2475 2.5575 1.375 3.875 C2.45036405 13.79021923 2.45036405 13.79021923 6 23 C4.68 23 3.36 23 2 23 C1.34 24.32 0.68 25.64 0 27 C0 18.09 0 9.18 0 0 Z " fill="#141515" transform="translate(617,937)"/>
<path d="M0 0 C3.36932864 4.49243819 3.37007917 6.95052266 3.1875 12.25 C3.16719727 13.36761719 3.16719727 13.36761719 3.14648438 14.5078125 C3.11127204 16.33885416 3.05746851 18.16952169 3 20 C2.01 20.33 1.02 20.66 0 21 C0 14.07 0 7.14 0 0 Z " fill="#141414" transform="translate(335,568)"/>
<path d="M0 0 C1.98 0 3.96 0 6 0 C5.67 0.99 5.34 1.98 5 3 C4.01 2.67 3.02 2.34 2 2 C2 8.6 2 15.2 2 22 C1.34 21.67 0.68 21.34 0 21 C0 14.07 0 7.14 0 0 Z " fill="#F1F1F0" transform="translate(367,937)"/>
<path d="M0 0 C7.26 0 14.52 0 22 0 C21.01 0.33 20.02 0.66 19 1 C19 1.66 19 2.32 19 3 C16.95863605 3.05451714 14.91684144 3.09302485 12.875 3.125 C11.16957031 3.15980469 11.16957031 3.15980469 9.4296875 3.1953125 C5.94242233 2.99672109 3.2446138 2.2524801 0 1 C0 0.67 0 0.34 0 0 Z " fill="#161616" transform="translate(383,851)"/>
<path d="M0 0 C1.98 0 3.96 0 6 0 C6 5.28 6 10.56 6 16 C5.67 16 5.34 16 5 16 C5 11.38 5 6.76 5 2 C4.01 2.33 3.02 2.66 2 3 C1.67 10.26 1.34 17.52 1 25 C0.67 25 0.34 25 0 25 C0 16.75 0 8.5 0 0 Z " fill="#E8E8E8" transform="translate(609,937)"/>
<path d="M0 0 C1.98 0 3.96 0 6 0 C5.75 2.875 5.75 2.875 5 6 C3.1875 7.4375 3.1875 7.4375 1 8 C-1.25 7.625 -1.25 7.625 -3 7 C-2.67 5.68 -2.34 4.36 -2 3 C-1.34 3 -0.68 3 0 3 C0 2.01 0 1.02 0 0 Z " fill="#EDEDED" transform="translate(538,955)"/>
<path d="M0 0 C0.33 0 0.66 0 1 0 C1.04254356 1.99954746 1.04080783 4.00041636 1 6 C0.67 6.33 0.34 6.66 0 7 C0.66 7.66 1.32 8.32 2 9 C1 10 1 10 -1.94140625 10.09765625 C-3.73384766 10.08025391 -3.73384766 10.08025391 -5.5625 10.0625 C-7.35880859 10.04896484 -7.35880859 10.04896484 -9.19140625 10.03515625 C-10.11824219 10.02355469 -11.04507812 10.01195312 -12 10 C-12 9.34 -12 8.68 -12 8 C-11.01 8 -10.02 8 -9 8 C-9 7.34 -9 6.68 -9 6 C-5.535 5.505 -5.535 5.505 -2 5 C-1.34 3.35 -0.68 1.7 0 0 Z " fill="#FAFAFA" transform="translate(414,953)"/>
<path d="M0 0 C0.70125 0.804375 1.4025 1.60875 2.125 2.4375 C6.41861272 6.13996314 11.53701543 5.60693054 16.953125 5.6640625 C17.95859375 5.77492188 18.9640625 5.88578125 20 6 C20.99 7.485 20.99 7.485 22 9 C17.05 9 12.1 9 7 9 C7 8.34 7 7.68 7 7 C6.21625 6.71125 5.4325 6.4225 4.625 6.125 C2 5 2 5 0 3 C0 2.01 0 1.02 0 0 Z " fill="#171716" transform="translate(456,957)"/>
<path d="M0 0 C2.64 0 5.28 0 8 0 C8.33 1.32 8.66 2.64 9 4 C6.04335481 5.4783226 3.25770263 5.06032783 0 5 C-0.33 4.34 -0.66 3.68 -1 3 C-0.67 2.01 -0.34 1.02 0 0 Z " fill="#131213" transform="translate(529,954)"/>
<path d="M0 0 C0.66 0.33 1.32 0.66 2 1 C0.68 1.99 -0.64 2.98 -2 4 C-1.34 2.68 -0.68 1.36 0 0 Z M-3 4 C-2.34 4.66 -1.68 5.32 -1 6 C-1.66 6.66 -2.32 7.32 -3 8 C-3.68132451 9.66072849 -4.34742127 11.327767 -5 13 C-5.99 14.485 -5.99 14.485 -7 16 C-7.66 16 -8.32 16 -9 16 C-9.33 16.99 -9.66 17.98 -10 19 C-10.33 18.34 -10.66 17.68 -11 17 C-9.6015625 14.21484375 -9.6015625 14.21484375 -7.625 10.9375 C-6.65433594 9.31134766 -6.65433594 9.31134766 -5.6640625 7.65234375 C-4 5 -4 5 -3 4 Z " fill="#E8E8E8" transform="translate(657,576)"/>
<path d="M0 0 C0.66 0.33 1.32 0.66 2 1 C2 1.66 2 2.32 2 3 C2.66 3 3.32 3 4 3 C4 3.99 4 4.98 4 6 C5.65 6 7.3 6 9 6 C9 6.66 9 7.32 9 8 C8.071875 7.979375 7.14375 7.95875 6.1875 7.9375 C2.97713989 7.84230396 2.97713989 7.84230396 0 9 C-2.6875 7.1875 -2.6875 7.1875 -5 5 C-5 4.34 -5 3.68 -5 3 C-3 3 -3 3 -1.375 4.5 C-0.92125 4.995 -0.4675 5.49 0 6 C0 5.01 0 4.02 0 3 C0 2.01 0 1.02 0 0 Z " fill="#ECEDED" transform="translate(462,954)"/>
<path d="M0 0 C3.82825694 0.0274427 3.82825694 0.0274427 6.125 1.75 C6.62 2.4925 6.62 2.4925 7.125 3.25 C6.795 3.91 6.465 4.57 6.125 5.25 C2.825 5.25 -0.475 5.25 -3.875 5.25 C-2.885 4.92 -1.895 4.59 -0.875 4.25 C-0.875 3.59 -0.875 2.93 -0.875 2.25 C-2.195 1.92 -3.515 1.59 -4.875 1.25 C-3.875 0.25 -3.875 0.25 0 0 Z " fill="#F9FAFA" transform="translate(469.875,925.75)"/>
<path d="M0 0 C0.33 0 0.66 0 1 0 C1 6.27 1 12.54 1 19 C0.67 17.68 0.34 16.36 0 15 C-0.66 15 -1.32 15 -2 15 C-2.3690205 4.44191344 -2.3690205 4.44191344 0 0 Z " fill="#181818" transform="translate(244,676)"/>
<path d="M0 0 C0.9075 0.78375 1.815 1.5675 2.75 2.375 C5.05190236 4.30052496 7.21577207 5.82205741 10 7 C3.25 7.125 3.25 7.125 1 6 C0.67 6.66 0.34 7.32 0 8 C-1.32 6.68 -2.64 5.36 -4 4 C-2.68 3.67 -1.36 3.34 0 3 C0 2.01 0 1.02 0 0 Z " fill="#ECECEC" transform="translate(626,955)"/>
<path d="M0 0 C0.33 0 0.66 0 1 0 C1.33 6.6 1.66 13.2 2 20 C2.66 20 3.32 20 4 20 C4 18.02 4 16.04 4 14 C4.33 14 4.66 14 5 14 C5 16.97 5 19.94 5 23 C3.02 23 1.04 23 -1 23 C-0.67 15.41 -0.34 7.82 0 0 Z " fill="#FDFDFD" transform="translate(610,940)"/>
<path d="M0 0 C3.63 0 7.26 0 11 0 C11 0.66 11 1.32 11 2 C12.32 2.33 13.64 2.66 15 3 C11.9020403 4.54897985 8.73783448 3.83239539 5.375 3.5625 C4.66859375 3.51029297 3.9621875 3.45808594 3.234375 3.40429688 C1.48920013 3.27458793 -0.25545725 3.13795046 -2 3 C-1.34 2.67 -0.68 2.34 0 2 C0 1.34 0 0.68 0 0 Z " fill="#1A191A" transform="translate(402,934)"/>
<path d="M0 0 C0.33 0.66 0.66 1.32 1 2 C1.99 1.67 2.98 1.34 4 1 C4 3.64 4 6.28 4 9 C5.98 9 7.96 9 10 9 C10.33 9.99 10.66 10.98 11 12 C7.625 12.125 7.625 12.125 4 12 C1.57869669 9.57869669 1.47159496 8.19888623 0.875 4.875 C0.70742188 3.96492187 0.53984375 3.05484375 0.3671875 2.1171875 C0.24601563 1.41851563 0.12484375 0.71984375 0 0 Z " fill="#141313" transform="translate(646,954)"/>
<path d="M0 0 C2.75 -0.25 2.75 -0.25 6 0 C8.375 2 8.375 2 10 4 C9.01 4.33 8.02 4.66 7 5 C6.34 4.67 5.68 4.34 5 4 C4.67 5.32 4.34 6.64 4 8 C2.5 6.625 2.5 6.625 1 5 C1 4.34 1 3.68 1 3 C0.67 2.01 0.34 1.02 0 0 Z " fill="#EBEBEC" transform="translate(579,926)"/>
<path d="M0 0 C1.19625 0.12375 2.3925 0.2475 3.625 0.375 C5.5625 2.875 5.5625 2.875 6.625 5.375 C3.325 5.375 0.025 5.375 -3.375 5.375 C-3.045 4.715 -2.715 4.055 -2.375 3.375 C-3.035 2.715 -3.695 2.055 -4.375 1.375 C-3.375 0.375 -3.375 0.375 0 0 Z " fill="#F8F8F9" transform="translate(575.375,925.625)"/>
<path d="M0 0 C4.24607828 0.57129053 7.05384562 2.04341987 10.625 4.375 C11.56601562 4.98085938 12.50703125 5.58671875 13.4765625 6.2109375 C15.56506715 7.69164203 17.2804251 9.11885431 19 11 C15.98782888 10.35550393 13.48344164 9.34977818 10.75 7.9375 C10.04359375 7.57527344 9.3371875 7.21304688 8.609375 6.83984375 C8.07828125 6.56269531 7.5471875 6.28554688 7 6 C7 5.34 7 4.68 7 4 C6.030625 3.71125 5.06125 3.4225 4.0625 3.125 C1 2 1 2 0 0 Z " fill="#EDEDED" transform="translate(541,564)"/>
<path d="M0 0 C1.65 0 3.3 0 5 0 C4.5131397 5.47717842 4.5131397 5.47717842 2.34375 7.6875 C-0.6886921 9.38566757 -2.79739672 9.30008489 -6.25 9.1875 C-7.86648438 9.14689453 -7.86648438 9.14689453 -9.515625 9.10546875 C-10.33546875 9.07066406 -11.1553125 9.03585937 -12 9 C-12 8.34 -12 7.68 -12 7 C-10.98679687 7.03480469 -10.98679687 7.03480469 -9.953125 7.0703125 C-9.06109375 7.08835937 -8.1690625 7.10640625 -7.25 7.125 C-6.36828125 7.14820313 -5.4865625 7.17140625 -4.578125 7.1953125 C-1.83110453 6.98720489 -0.27112497 6.54477419 2 5 C2.33 4.01 2.66 3.02 3 2 C2.01 2 1.02 2 0 2 C0 1.34 0 0.68 0 0 Z " fill="#FCFCFC" transform="translate(639,954)"/>
<path d="M0 0 C4.95 0 9.9 0 15 0 C12.65454672 2.34545328 11.04014162 2.95508888 7.73828125 3.09765625 C6.93777344 3.08605469 6.13726563 3.07445312 5.3125 3.0625 C4.10013672 3.04896484 4.10013672 3.04896484 2.86328125 3.03515625 C1.94095703 3.01775391 1.94095703 3.01775391 1 3 C0.67 2.01 0.34 1.02 0 0 Z " fill="#1D1C1C" transform="translate(526,963)"/>
<path d="M0 0 C2.60157681 0.40829576 4.09749179 1.46077304 5.94140625 3.3046875 C5.61140625 3.9646875 5.28140625 4.6246875 4.94140625 5.3046875 C4.61140625 4.9746875 4.28140625 4.6446875 3.94140625 4.3046875 C1.75847851 4.06987057 -0.43062549 3.89105427 -2.62109375 3.7421875 C-4.41740234 3.61650391 -4.41740234 3.61650391 -6.25 3.48828125 C-7.17683594 3.42769531 -8.10367187 3.36710938 -9.05859375 3.3046875 C-6.31140687 0.06968239 -4.25925329 -0.14119072 0 0 Z " fill="#171717" transform="translate(473.05859375,930.6953125)"/>
<path d="M0 0 C1.98 0 3.96 0 6 0 C6 1.98 6 3.96 6 6 C4.02 6 2.04 6 0 6 C0 4.02 0 2.04 0 0 Z " fill="#F7F7F6" transform="translate(609,926)"/>
<path d="M0 0 C2.58353495 4.61345527 2.07623948 8.95047942 1.75 14.125 C1.42 14.125 1.09 14.125 0.75 14.125 C0.72421875 13.44953125 0.6984375 12.7740625 0.671875 12.078125 C0.33543703 6.59018337 0.33543703 6.59018337 -1.6875 1.5625 C-5.65418767 -0.66271504 -9.76504715 -0.70381859 -14.25 -0.875 C-14.25 -1.205 -14.25 -1.535 -14.25 -1.875 C-4.08050847 -3.40042373 -4.08050847 -3.40042373 0 0 Z " fill="#2A2929" transform="translate(543.25,937.875)"/>
<path d="M0 0 C2.28062828 3.42094242 2.21925007 4.68187222 2.125 8.6875 C2.10695313 9.68136719 2.08890625 10.67523437 2.0703125 11.69921875 C2.03550781 12.83810547 2.03550781 12.83810547 2 14 C1.01 14.33 0.02 14.66 -1 15 C-1.02693575 12.87506859 -1.04636628 10.75004088 -1.0625 8.625 C-1.07410156 7.44164062 -1.08570313 6.25828125 -1.09765625 5.0390625 C-1 2 -1 2 0 0 Z " fill="#E7E8E7" transform="translate(305,677)"/>
<path d="M0 0 C1 3 1 3 -0.125 5.875 C-2.41475129 9.69125215 -4.95698027 12.97849014 -9 15 C-9 14.01 -9 13.02 -9 12 C-7.46935714 10.79502583 -5.93764759 9.59130224 -4.39453125 8.40234375 C-2.25212159 6.2479318 -2.26640776 3.93048537 -2 1 C-1.34 0.67 -0.68 0.34 0 0 Z " fill="#F0F0EF" transform="translate(847,637)"/>
<path d="M0 0 C3.125 0.375 3.125 0.375 6 1 C6.33 2.32 6.66 3.64 7 5 C6.38125 5.103125 5.7625 5.20625 5.125 5.3125 C2.63473516 5.87525373 2.63473516 5.87525373 1 9 C0.814375 7.824375 0.814375 7.824375 0.625 6.625 C0.20882007 3.85942178 0.20882007 3.85942178 -2 2 C-1.34 1.34 -0.68 0.68 0 0 Z " fill="#E9E9E9" transform="translate(537,939)"/>
<path d="M0 0 C2.24893954 -0.10823773 4.49937575 -0.18569645 6.75 -0.25 C8.00296875 -0.29640625 9.2559375 -0.3428125 10.546875 -0.390625 C14 0 14 0 16.453125 2.015625 C16.96359375 2.67046875 17.4740625 3.3253125 18 4 C11.91766294 3.32418477 5.98685848 2.26361972 0 1 C0 0.67 0 0.34 0 0 Z " fill="#141414" transform="translate(269,652)"/>
<path d="M0 0 C0.99 0.33 1.98 0.66 3 1 C3 1.66 3 2.32 3 3 C3.66 3 4.32 3 5 3 C5 3.99 5 4.98 5 6 C6.32 6.33 7.64 6.66 9 7 C4.545 7.495 4.545 7.495 0 8 C0 5.36 0 2.72 0 0 Z " fill="#F0F0EF" transform="translate(371,955)"/>
<path d="M0 0 C0.33 1.32 0.66 2.64 1 4 C1.763125 3.938125 2.52625 3.87625 3.3125 3.8125 C6 4 6 4 7.8125 5.5 C8.204375 5.995 8.59625 6.49 9 7 C6.42332866 8.21676146 4.62217997 9.05184833 1.75 8.8125 C1.1725 8.544375 0.595 8.27625 0 8 C-1.09658936 4.71023192 -0.79953138 3.28696233 0 0 Z " fill="#E4E4E4" transform="translate(402,943)"/>
<path d="M0 0 C1.4540625 0.0309375 1.4540625 0.0309375 2.9375 0.0625 C3.2675 1.0525 3.5975 2.0425 3.9375 3.0625 C0.9375 5.0625 0.9375 5.0625 -1.32421875 4.8203125 C-2.12472656 4.61148438 -2.92523438 4.40265625 -3.75 4.1875 C-4.55824219 3.98382812 -5.36648438 3.78015625 -6.19921875 3.5703125 C-6.81410156 3.40273438 -7.42898438 3.23515625 -8.0625 3.0625 C-7.423125 2.753125 -6.78375 2.44375 -6.125 2.125 C-2.0825 0.0425 -2.0825 0.0425 0 0 Z " fill="#1A1A1A" transform="translate(416.0625,944.9375)"/>
<path d="M0 0 C1.3303125 0.37125 1.3303125 0.37125 2.6875 0.75 C2.3575 1.41 2.0275 2.07 1.6875 2.75 C1.0275 2.42 0.3675 2.09 -0.3125 1.75 C-0.3125 2.41 -0.3125 3.07 -0.3125 3.75 C-0.93125 3.87375 -1.55 3.9975 -2.1875 4.125 C-4.50370832 4.62197356 -4.50370832 4.62197356 -6.3125 6.75 C-6.9725 6.75 -7.6325 6.75 -8.3125 6.75 C-8.3125 3.75 -8.3125 3.75 -6.1875 1.5 C-3.3125 -0.25 -3.3125 -0.25 0 0 Z " fill="#F3F3F3" transform="translate(504.3125,937.25)"/>
<path d="M0 0 C3.5 0.3125 3.5 0.3125 6.5 2.3125 C6.17 2.9725 5.84 3.6325 5.5 4.3125 C4.51 3.9825 3.52 3.6525 2.5 3.3125 C0.93881572 3.24509135 -0.6250252 3.22735544 -2.1875 3.25 C-2.99574219 3.25902344 -3.80398438 3.26804687 -4.63671875 3.27734375 C-5.25160156 3.28894531 -5.86648438 3.30054688 -6.5 3.3125 C-4.17682541 0.6281001 -3.77217137 0.33680101 0 0 Z " fill="#1C1C1C" transform="translate(576.5,930.6875)"/>
<path d="M0 0 C8.36628849 7.05024311 8.36628849 7.05024311 11 10 C11 10.66 11 11.32 11 12 C8.14820529 11.64037102 7.10604616 11.11014144 5.078125 9.00390625 C4.47484375 8.19824219 3.8715625 7.39257812 3.25 6.5625 C2.63640625 5.75941406 2.0228125 4.95632813 1.390625 4.12890625 C0 2 0 2 0 0 Z " fill="#EDEDED" transform="translate(658,951)"/>
<path d="M0 0 C0.33 0 0.66 0 1 0 C2.125 6.75 2.125 6.75 1 9 C-1.31 9 -3.62 9 -6 9 C-6 8.01 -6 7.02 -6 6 C-4.02 6 -2.04 6 0 6 C0 4.02 0 2.04 0 0 Z " fill="#1B1B1B" transform="translate(615,926)"/>
<path d="M0 0 C1.62418745 -0.08090971 3.24951745 -0.13914995 4.875 -0.1875 C5.77992188 -0.22230469 6.68484375 -0.25710938 7.6171875 -0.29296875 C8.79667969 -0.14794922 8.79667969 -0.14794922 10 0 C10.66 0.99 11.32 1.98 12 3 C8.04 3 4.08 3 0 3 C0 2.01 0 1.02 0 0 Z " fill="#EAEAEA" transform="translate(778,557)"/>
<path d="M0 0 C1.65 0 3.3 0 5 0 C5.33 2.64 5.66 5.28 6 8 C3.5625 7.1875 3.5625 7.1875 1 6 C0 3 0 3 0 0 Z " fill="#EAEBEB" transform="translate(474,926)"/>
<path d="M0 0 C0.79921875 0.00902344 1.5984375 0.01804687 2.421875 0.02734375 C3.02515625 0.03894531 3.6284375 0.05054688 4.25 0.0625 C4.25 0.3925 4.25 0.7225 4.25 1.0625 C1.61 1.0625 -1.03 1.0625 -3.75 1.0625 C-3.75 1.7225 -3.75 2.3825 -3.75 3.0625 C-6.39 4.0525 -9.03 5.0425 -11.75 6.0625 C-11.42 5.0725 -11.09 4.0825 -10.75 3.0625 C-10.09 3.0625 -9.43 3.0625 -8.75 3.0625 C-8.75 2.4025 -8.75 1.7425 -8.75 1.0625 C-5.75519083 0.1901588 -3.11424089 -0.04579766 0 0 Z " fill="#161616" transform="translate(454.75,686.9375)"/>
<path d="M0 0 C0.66 0 1.32 0 2 0 C1.67 0.99 1.34 1.98 1 3 C0.34 3 -0.32 3 -1 3 C-0.67 2.01 -0.34 1.02 0 0 Z M-2 3 C-1.34 3.66 -0.68 4.32 0 5 C-0.33 5.66 -0.66 6.32 -1 7 C-1.66 7 -2.32 7 -3 7 C-3.12375 7.804375 -3.2475 8.60875 -3.375 9.4375 C-3.58125 10.283125 -3.7875 11.12875 -4 12 C-4.99 12.495 -4.99 12.495 -6 13 C-5.52449439 11.51965236 -5.04448784 10.04074979 -4.5625 8.5625 C-4.29566406 7.73878906 -4.02882812 6.91507813 -3.75390625 6.06640625 C-3 4 -3 4 -2 3 Z " fill="#EDEDEC" transform="translate(251,666)"/>
<path d="M0 0 C2.64 0 5.28 0 8 0 C7.67 0.99 7.34 1.98 7 3 C4.36 3 1.72 3 -1 3 C-0.67 2.01 -0.34 1.02 0 0 Z " fill="#181717" transform="translate(530,943)"/>
<path d="M0 0 C1.45922693 0.11409593 2.91740598 0.24165544 4.375 0.375 C5.59316406 0.47941406 5.59316406 0.47941406 6.8359375 0.5859375 C9 1 9 1 11 3 C10.625 5.125 10.625 5.125 10 7 C8.5 5.625 8.5 5.625 7 4 C7 3.34 7 2.68 7 2 C4.69 1.67 2.38 1.34 0 1 C0 0.67 0 0.34 0 0 Z " fill="#F2F2F2" transform="translate(631,938)"/>
<path d="M0 0 C5.63689034 1.32632714 7.93185683 5.46631765 11 10 C7.81326038 8.59698853 5.67778594 6.92234929 3.25 4.4375 C2.63640625 3.81746094 2.0228125 3.19742188 1.390625 2.55859375 C0 1 0 1 0 0 Z " fill="#E8E8E8" transform="translate(825,697)"/>
<path d="M0 0 C-0.33 0.66 -0.66 1.32 -1 2 C-1.66 2 -2.32 2 -3 2 C-3 2.99 -3 3.98 -3 5 C-2.01 5.33 -1.02 5.66 0 6 C-1.32 6 -2.64 6 -4 6 C-4 4.68 -4 3.36 -4 2 C-6.31 2 -8.62 2 -11 2 C-11 1.67 -11 1.34 -11 1 C-7.26562152 0.12132271 -3.83225427 -0.08912219 0 0 Z " fill="#020302" transform="translate(407,952)"/>
<path d="M0 0 C0.33 0 0.66 0 1 0 C1.0825 1.27875 1.165 2.5575 1.25 3.875 C1.45869931 6.05333418 1.45869931 6.05333418 2 8 C3.92064793 9.5899433 3.92064793 9.5899433 6 10 C4.35 10.33 2.7 10.66 1 11 C-0.62950412 6.87831311 -1.26264601 4.29299643 0 0 Z " fill="#1B1B1B" transform="translate(396,942)"/>
<path d="M0 0 C0.99 0.33 1.98 0.66 3 1 C4.051875 1.185625 4.051875 1.185625 5.125 1.375 C5.74375 1.58125 6.3625 1.7875 7 2 C7.33 2.99 7.66 3.98 8 5 C5.36 4.67 2.72 4.34 0 4 C0 2.68 0 1.36 0 0 Z " fill="#161515" transform="translate(404,941)"/>
<path d="M0 0 C3.49873271 1.39655297 4.70891831 2.71260484 6.25 6.125 C6.58515625 6.84945312 6.9203125 7.57390625 7.265625 8.3203125 C7.62914062 9.15175781 7.62914062 9.15175781 8 10 C7.01 9.67 6.02 9.34 5 9 C4.66666667 7.66666667 4.33333333 6.33333333 4 5 C3.01 4.67 2.02 4.34 1 4 C0.3125 1.9375 0.3125 1.9375 0 0 Z " fill="#E9E9E9" transform="translate(297,665)"/>
<path d="M0 0 C0.33 0 0.66 0 1 0 C1 2.97 1 5.94 1 9 C0.67 9 0.34 9 0 9 C0 6.03 0 3.06 0 0 Z M-2 9 C-1.34 9 -0.68 9 0 9 C0.33 10.98 0.66 12.96 1 15 C0.01 14.67 -0.98 14.34 -2 14 C-2 12.35 -2 10.7 -2 9 Z " fill="#131413" transform="translate(546,944)"/>
<path d="M0 0 C0.8125 1.6875 0.8125 1.6875 1 4 C-1.53816609 7.03169839 -3.22508911 8.74169637 -7 10 C-5.5834979 6.5767866 -3.93172851 5.17515341 -1 3 C-0.67 2.01 -0.34 1.02 0 0 Z " fill="#F0EFEF" transform="translate(835,823)"/>
<path d="M0 0 C3.34373475 0.55728913 6.03312999 1.35173889 9 3 C9 3.66 9 4.32 9 5 C5.26512223 4.5020163 3.18762365 4.12508244 0 2 C0 1.34 0 0.68 0 0 Z " fill="#EBEBEC" transform="translate(809,563)"/>
<path d="M0 0 C0.33 0.66 0.66 1.32 1 2 C-1.64 2.33 -4.28 2.66 -7 3 C-7.33 2.01 -7.66 1.02 -8 0 C-4.71303767 -0.79953138 -3.28976808 -1.09658936 0 0 Z " fill="#E9EAE9" transform="translate(694,559)"/>
<path d="M0 0 C0.33 0 0.66 0 1 0 C1 2.97 1 5.94 1 9 C-0.32 9.33 -1.64 9.66 -3 10 C-2.25 2.25 -2.25 2.25 0 0 Z " fill="#151515" transform="translate(488,947)"/>
<path d="M0 0 C-0.33 3.3 -0.66 6.6 -1 10 C-2.88343932 6.23312136 -3.22057835 4.97041037 -3 1 C-1 0 -1 0 0 0 Z " fill="#E8E8E7" transform="translate(848,796)"/>
<path d="M0 0 C2 4 2 4 1.3125 6.1875 C0 8 0 8 -3 9 C-2.01 6.03 -1.02 3.06 0 0 Z " fill="#EBECEC" transform="translate(802,788)"/>
<path d="M0 0 C3.72433382 1.2125738 7.37802806 2.50859979 11 4 C11 4.33 11 4.66 11 5 C6.78121808 5.19622241 3.82989106 4.80230168 0 3 C0 2.01 0 1.02 0 0 Z " fill="#191A1A" transform="translate(676,718)"/>
<path d="M0 0 C1.8125 1.5625 1.8125 1.5625 3 3 C-4.75 2.25 -4.75 2.25 -7 0 C-4.26634878 -1.36682561 -2.89333621 -0.84683011 0 0 Z " fill="#131313" transform="translate(521,605)"/>
<path d="M0 0 C3 1 3 1 4 3 C4.66 3 5.32 3 6 3 C6 3.66 6 4.32 6 5 C3.125 5.125 3.125 5.125 0 5 C-0.66 4.34 -1.32 3.68 -2 3 C-1.34 3 -0.68 3 0 3 C0 2.01 0 1.02 0 0 Z " fill="#EEEEEF" transform="translate(431,957)"/>
<path d="M0 0 C2.64 0 5.28 0 8 0 C8 0.99 8 1.98 8 3 C5.03 3 2.06 3 -1 3 C-0.67 2.01 -0.34 1.02 0 0 Z " fill="#191919" transform="translate(573,955)"/>
<path d="M0 0 C0.66 0.33 1.32 0.66 2 1 C-2.455 4.465 -2.455 4.465 -7 8 C-7 7.01 -7 6.02 -7 5 C-5.46875 3.61328125 -5.46875 3.61328125 -3.5 2.3125 C-2.8503125 1.87550781 -2.200625 1.43851563 -1.53125 0.98828125 C-1.0259375 0.66214844 -0.520625 0.33601562 0 0 Z " fill="#EBEBEC" transform="translate(827,834)"/>
<path d="M0 0 C4.41889613 1.35021826 6.34345343 3.26115668 9 7 C8.1646875 6.566875 8.1646875 6.566875 7.3125 6.125 C4.91505355 4.9586747 2.48403061 3.9660119 0 3 C0 2.01 0 1.02 0 0 Z " fill="#EAEAEA" transform="translate(675,757)"/>
<path d="M0 0 C2.97 0 5.94 0 9 0 C8.01 0.495 8.01 0.495 7 1 C7 1.66 7 2.32 7 3 C4.69 3 2.38 3 0 3 C0 2.01 0 1.02 0 0 Z " fill="#EBECEC" transform="translate(452,726)"/>
<path d="M0 0 C0.99 0 1.98 0 3 0 C2.67 2.97 2.34 5.94 2 9 C0.11656068 5.23312136 -0.22057835 3.97041037 0 0 Z " fill="#E7E7E6" transform="translate(641,667)"/>
<path d="M0 0 C5.78461538 3.32307692 5.78461538 3.32307692 6.875 6.75 C6.936875 7.86375 6.936875 7.86375 7 9 C6.2575 8.236875 5.515 7.47375 4.75 6.6875 C2.5736677 4.5606298 0.47832204 2.7440044 -2 1 C-1.34 0.67 -0.68 0.34 0 0 Z " fill="#1F1F1F" transform="translate(327,558)"/>
<path d="M0 0 C0.66 0 1.32 0 2 0 C2 0.66 2 1.32 2 2 C3.98 2 5.96 2 8 2 C8.33 2.99 8.66 3.98 9 5 C4.545 4.01 4.545 4.01 0 3 C0 2.01 0 1.02 0 0 Z " fill="#171817" transform="translate(802,682)"/>
<path d="M0 0 C0.33 0 0.66 0 1 0 C1.33 2.97 1.66 5.94 2 9 C-1 7 -1 7 -1.6875 4.375 C-1.790625 3.59125 -1.89375 2.8075 -2 2 C-1.34 2 -0.68 2 0 2 C0 1.34 0 0.68 0 0 Z " fill="#E1E1E1" transform="translate(579,607)"/>
<path d="M0 0 C3 1 3 1 5 4 C2.69 3.34 0.38 2.68 -2 2 C-1.34 1.34 -0.68 0.68 0 0 Z M-4 2 C-3.34 2.33 -2.68 2.66 -2 3 C-2.99 3 -3.98 3 -5 3 C-4.67 2.67 -4.34 2.34 -4 2 Z " fill="#EDECEC" transform="translate(569,926)"/>
<path d="M0 0 C3.36591866 1.44253657 5.51047079 3.33264727 8 6 C4.06830895 6 2.83572772 4.60580385 0 2 C0 1.34 0 0.68 0 0 Z " fill="#E6E6E6" transform="translate(658,832)"/>
<path d="M0 0 C0.66 0 1.32 0 2 0 C3.32 2.31 4.64 4.62 6 7 C5.01 7.33 4.02 7.66 3 8 C3 6.68 3 5.36 3 4 C2.01 3.67 1.02 3.34 0 3 C0 2.01 0 1.02 0 0 Z " fill="#EFF0EF" transform="translate(835,707)"/>
</svg>
